<svg xmlns="http://www.w3.org/2000/svg" width="328" height="180" fill="none" xmlns:v="https://vecta.io/nano"><rect x=".5" y=".5" width="327" height="179" rx="15.5" fill="#eaf0ff"/><rect x=".5" y=".5" width="327" height="179" rx="15.5" stroke="#0668e1"/><g fill="#8cb4f4"><path d="M214.157 179.097l-.078-.002c-.636-.011-1.127-.531-1.067-1.129l4.241-42.37 3.7.33-6.089 42.598c-.047.333-.352.579-.707.573z"/><use href="#D"/><use href="#E"/><use href="#F"/><use href="#F" x="-4.551"/><path d="M251.629 136.215h-57.435c-1.154 0-2.098-.944-2.098-2.099v-2.584c0-1.155.944-2.099 2.098-2.099h59.533v4.683c0 1.155-.945 2.099-2.098 2.099z"/><path d="M224.673 136.215H188.06c-.93 0-1.69-.76-1.69-1.69v-3.401c0-.93.76-1.691 1.69-1.691h36.613c.93 0 1.69.76 1.69 1.691v3.401c0 .93-.76 1.69-1.69 1.69z"/></g><path d="M147.207 50.174h30.173c1.385 0 2.518-1.134 2.518-2.52V18.52c0-1.386-1.133-2.52-2.518-2.52h-30.173c-1.385 0-2.518 1.134-2.518 2.52v29.135c0 1.386 1.133 2.52 2.518 2.52z" fill="#c0d8fb"/><path d="M148.516 48.695h27.559a2.31 2.31 0 0 0 2.3-2.301V19.783a2.31 2.31 0 0 0-2.3-2.301h-27.559a2.31 2.31 0 0 0-2.3 2.301v26.611a2.31 2.31 0 0 0 2.3 2.301z" fill="#dfebfd"/><g fill="#9abee6"><path d="M162.294 21.329a.73.73 0 1 1 0-1.46.73.73 0 1 1 0 1.46zm-5.152.303a.73.73 0 0 0-.992-.283.73.73 0 0 0-.283.992.73.73 0 0 0 .992.283.73.73 0 0 0 .283-.992zm-5.043 4.007a.73.73 0 0 0-1.008.218.73.73 0 0 0 .218 1.009.73.73 0 0 0 1.008-.218.73.73 0 0 0-.218-1.009zm-2.5 6.203a.73.73 0 1 0 0 1.46.73.73 0 0 0 0-1.46zm1.277 7.199a.73.73 0 0 0 0 1.032.73.73 0 0 0 1.031 0 .73.73 0 0 0 0-1.032.73.73 0 0 0-1.031 0zm4.578 4.594a.73.73 0 0 0 0 1.032.73.73 0 0 0 1.032 0 .73.73 0 0 0 0-1.032.73.73 0 0 0-1.032 0zm7.569 2.368a.73.73 0 0 0-.729-.73.73.73 0 0 0 0 1.46.73.73 0 0 0 .729-.73zm4.45-24.371a.73.73 0 0 1 .992-.283.73.73 0 0 1 .283.992.73.73 0 0 1-.992.283.73.73 0 0 1-.283-.992zm5.043 4.007a.73.73 0 0 1 .791 1.227.73.73 0 0 1-.791-1.227zm2.501 6.203a.73.73 0 0 1 0 1.46.73.73 0 0 1 0-1.46zm-1.281 7.199a.73.73 0 0 1 0 1.032.73.73 0 0 1-1.032 0 .73.73 0 0 1 0-1.032.73.73 0 0 1 1.032 0zm-4.579 4.594a.73.73 0 0 1 0 1.032.73.73 0 0 1-1.031 0 .73.73 0 0 1 0-1.032.73.73 0 0 1 1.031 0zm-6.665-11.064a.73.73 0 0 0-.729-.73.73.73 0 1 0 0 1.46.73.73 0 0 0 .729-.73z"/><path d="M161.664 23.455h.199v9.116h-.199v-9.116z"/><path d="M157.201 28.522l4.83 3.794-.369.47-4.83-3.794.369-.47z"/></g><path d="M203.691 121.65c3.107 5.411 7.015 7.499 7.015 7.499h16.259s-25.644-11.626-23.274-7.499z" fill="#233862"/><path d="M183.64 175.402c.176 1.706-2.197 2.147-4.949 2.314s-1.913.722-5.679 1.446-5.289-.292-5.568-.8c-.248-.449 1.499-1.176 3.36-1.996l.703-.313c2.094-.948 3.254-2.849 4.876-4.617 1.536-1.674 2.955-6.998 2.955-6.998l5.115-1.151-1.866 6.838c-.281 1.203.167 2.539.563 3.556.213.553.429 1.119.49 1.721z" fill="#ffb27d"/><path d="M178.691 177.716c-2.752.166-1.914.722-5.68 1.446s-5.289-.293-5.567-.8c-.248-.45 1.498-1.176 3.359-1.996l.03.031a10.74 10.74 0 0 0 5.716.007c2.488-.705 4.886-2.223 6.6-2.723.213.553.429 1.119.49 1.72.176 1.707-2.197 2.148-4.948 2.315z" fill="#0f2549"/><path d="M191.387 116.107c2.753-1.933 20.961-5.381 30.253-6.378l10.271-8.919s8.742 12.954 8.811 22.864c.033 4.621-2.095 5.08-2.095 5.081l-34.368.393c-2.362.244-5.478 6.132-6.257 11.494s-14.508 27.174-14.508 27.174-2.863.917-4.187.84c-1.424-.084-2.083-.561-2.083-.561s7.955-47.626 14.163-51.988z" fill="#233862"/><path d="M192.155 175.402c.176 1.706-2.196 2.147-4.948 2.314s-1.914.722-5.679 1.446-5.289-.292-5.568-.8c-.248-.449 1.499-1.176 3.36-1.996l.703-.313c2.094-.948 3.254-2.849 4.876-4.617 1.536-1.674 2.954-6.998 2.954-6.998l5.116-1.151-1.867 6.838c-.281 1.203.167 2.539.563 3.556.214.553.429 1.119.49 1.721z" fill="#ffb27d"/><path d="M187.206 177.716c-2.752.166-1.913.722-5.679 1.446s-5.289-.293-5.567-.8c-.249-.45 1.498-1.176 3.359-1.996l.029.031s2.663.873 5.716.007c2.489-.705 4.886-2.223 6.601-2.723.213.553.429 1.119.49 1.72.176 1.707-2.197 2.148-4.949 2.315z" fill="#233862"/><path d="M199.981 116.107c2.391-1.679 9.584-2.982 17.523-3.949 2.195-.267 3.998-1.864 4.534-4.01l18.467-7.338s8.742 12.954 8.811 22.864c.032 4.621-2.095 5.08-2.096 5.081l-34.367.393c-2.362.244-5.478 6.132-6.257 11.494s-14.508 27.174-14.508 27.174-2.863.917-4.187.84c-1.424-.084-2.084-.561-2.084-.561s7.956-47.626 14.164-51.988z" fill="#2b478b"/><path d="M244.897 56.917s-1.671 2.785-1.906 4.924 6.178 8.194.954 12.419-24.872 2.635-25.537-3.347 5.504-9.264 5.595-13.618c.183-8.735 2.38-7.568 3.535-9.333s6.326-.758 6.515-.442 10.844 9.396 10.844 9.396v.002z" fill="#000"/><path d="M230.759 47.407c6.613-2.743 14.293 4.02 11.732 10.302-1.45 3.56-4.062 5.66-6.855 6.704l.919 4.364s-1.484 3.317-5.294 3.744c-3.321.372-4.434-1.874-4.434-1.874l1.946-5.601c-1.476-.276-2.708-.823-3.47-1.547-3.062-2.909 2.096-14.7 5.454-16.094l.002.002z" fill="url(#A)"/><g fill="#000"><path d="M231.691 48.72s-.815 2.611.601 5.471c2.428 4.903 10.34 6.176 10.34 6.176s4.709-4.121 2.018-10.427-11.375-8.073-12.961-4.205c0 0-3.512-2.039-4.149 2.229 0 0 1.439 2.334 4.149.758l.002-.002z"/><path d="M236.701 55.815c1.934 3.594-1.611 6.027-1.07 8.6l1.362.577c.171 0 3.45-1.681 3.45-1.681l1.092-1.517.379-3.36-.925-2.419"/></g><path d="M238.47 58.684s1.214-1.355 2.316-.316c.898.848.16 3.002-1.818 3.566-.676.193-1.24-.171-.955-.854.24-.577.422-1.587.457-2.397z" fill="url(#B)"/><path d="M228.772 65.047s3.099.239 5.263-1.318c0 0-1.892 3.614-6.022 3.498l.759-2.182v.002z" fill="url(#C)" style="mix-blend-mode:multiply"/><g fill="#0374ff"><path d="M218.436 88.565c.297 19.88.081 15.726 2.255 17.612.524.454 1.996.725 3.934.853 6.093.404 16.803-.6 17.211-1.726 1.405-3.898.413-5.109 1.585-11.077a52.21 52.21 0 0 1 .451-2.07c.978-4.099 1.929-5.493-1.539-12.078-3.145-5.965-6.844-10.81-7.138-10.635-8.298 4.928-8.583.797-8.583.797s-8.322 8.627-8.176 18.324z"/><path d="M226.613 70.241s-8.493 1.44-9.495 5.118l-6.904 25.301s4.341.78 6.347-1.226 6.977-18.614 6.977-18.614l3.075-10.58z"/></g><path d="M224.625 107.03c6.093.404 16.804-.6 17.211-1.726 1.405-3.898.413-5.109 1.586-11.077l-2.939-8.279s.486 9.219-2.232 11.644-11.126 4.681-12.447 6.707c-.637.973-1.056 1.948-1.179 2.731z" fill="#fff" fill-opacity=".1"/><path d="M231.605 103.152s-6.011-1.339-6.98-.806-3.341 2.478-3.638 3.154 2.16-.513 2.959-.728c.517-.139 1.879.335 2.553.56 2.837.946 4.575.459 4.575.459l.531-2.639z" fill="#ffb27d"/><path d="M235.193 69.443s8.508.497 11.302 4.396c3.933 5.488 11.735 28.877 7.264 31.997-5.036 3.513-22.919.919-22.919.919s-.595-2.783.233-4.129 14.283-3.521 14.904-4.142-7.762-12.116-7.762-13.979-3.022-15.062-3.022-15.062z" fill="#0374ff"/><path d="M224.332 104.021s-1.259 1.625-1.672 1.819-.68.145-.68.145l.849-1.528 1.503-.436zm.293-1.674l-3.662 1.779s.156.255.607.234 1.588-.437 1.588-.437l1.467-1.576z" fill="#ffb27d"/><g fill="#9cbdff"><path d="M211.134 106.564h17.007c0-.749-.607-1.356-1.356-1.356h-15.651v1.356z"/><path d="M211.183 88.033h-26.294l6.307 18.531h26.464l-6.477-18.531z"/></g><path d="M184.502 88.033l6.307 18.531h26.464l-6.477-18.531h-26.294z" fill="#bed4ff"/><path d="M198.681 97.128c.163.708.869 1.282 1.577 1.282s1.149-.574.985-1.282-.869-1.282-1.577-1.282-1.149.574-.985 1.282z" fill="#fff"/><g fill="#182d4f"><path d="M234.021 110.734H118.793a.88.88 0 0 1-.877-.878v-2.414c0-.485.392-.878.877-.878h115.228c.485 0 .877.393.877.878v2.414a.88.88 0 0 1-.877.878z"/><path d="M115.971 179.407l-.049-.006a1.06 1.06 0 0 1-.934-1.177l10.268-69.538 3.76.107-12.082 69.915c-.077.448-.502.756-.963.699zm121.908 0l.05-.006c.59-.073 1.008-.6.933-1.177l-10.268-69.538-3.759.107 12.081 69.915c.078.448.503.756.963.699zm-23.773 0l.049-.006c.591-.073 1.009-.6.934-1.177l-10.268-69.538-3.759.107 12.081 69.915c.077.448.502.756.963.699z"/></g><path d="M20.393 180h287.214c.216 0 .393-.16.393-.355v-.29c0-.195-.177-.355-.393-.355H20.393c-.216 0-.393.16-.393.355v.29c0 .195.177.355.393.355z" fill="#2e3552"/><g fill="#233862"><use href="#G"/><path d="M97.929 113.111c.736 0 34.903 6.418 40.555 13.418 2.823 3.496 3.243 43.877 3.243 43.877s-3.493 4.333-11.037 1.817c0 0-5.531-27.628-5.123-36.008.113-2.317-23.344-.335-27.638-1.447s-14.784-10.456-12.472-15.008 12.472-6.649 12.472-6.649z"/></g><path d="M138.337 103.223s6.892.093 8.522.792 4.936 2.303 4.052 2.549-5.107-.102-6.019.038-2.038-.038-2.597-.038h-3.165l-.793-3.341zm8.058-16.547s2.35-1.68 4.632-2.006c1.301-.186 2.567-.418 3.332-.688 2.105-.742 6.318-4.532 5.999-4.977-1.022-1.425-5.94 1.59-6.798 1.267s1.65-2.108.777-2.736c-.456-.328-1.522 1.315-2.393 1.48-1.179.223-2.101 1.889-2.455 1.976-.691.169-3.717 2.421-3.717 2.421l.623 3.263z" fill="#ffa9a9"/><path d="M101.335 67.058s5.247 1.627 10.416 15.868 7.132 15.01 9.011 15.569 18.371 3.843 18.371 3.843v4.227h-25.412s-9.529-9.069-12.386-15.174 0-24.333 0-24.333z" fill="#2b6af0"/><use href="#G" x="9.008" fill="#1b3051"/><path d="M107.999 113.111c.736 0 34.903 6.418 40.555 13.418 2.823 3.496 3.243 43.877 3.243 43.877s-3.493 4.333-11.037 1.817c0 0-5.531-27.628-5.122-36.008.113-2.317-23.345-.335-27.639-1.447s-14.783-10.456-12.472-15.008 12.472-6.649 12.472-6.649z" fill="#2b478b"/><path d="M105.862 71.571c-2.458-.203-5.035-.858-7.263-1.582-2.784-.904-5.028-2.225-3.582-4.771 1.333-2.346 3.49-7.588 3.344-11.93l5.181 4.177 3.52 2.837s-.015 1.673-.4 4.604l-.249 1.728c-.078.498.15.995.578 1.261l.08.05c1.749 1.099.849 3.797-1.209 3.627z" fill="#ffa9a9"/><path d="M107.061 59.612s.18.607-.129 2.85c-3.138-.512-6.071-3.016-6.071-3.016 1.597-.439 2.179-2.166 3.368-2.005l2.832 2.17z" fill="#fe8c8c"/><path d="M109.962 60.123s-12.069 2.006-13.202-5.533-3.454-12.357 4.204-13.956 9.591 1.051 10.58 3.476 1.528 15.297-1.582 16.013z" fill="#ffa9a9"/><path d="M113.321 40.774c.519 1.815-.868 4.027-3.197 4.754-3.456 1.081-2.692 5.322-4.247 5.264s-2.183-2.438-3.572-.536c-1.185 1.622.986 3.545.837 4.435-.257 1.527-2.648 4.652-4.802 4.495s-6.187-10.402-5.38-13.572 4.032-6.512 7.085-6.973 7.293.858 8.272.858 4.725.294 5.005 1.275z" fill="#211a35"/><g fill="#5188ff"><path d="M85.297 77.52c1.744-7.024 6.566-14.395 9.826-14.388 5.555.011 13.54 1.477 16.764 9.435 2.375 5.861 5.543 39.574 1.963 41.971-8.183 5.481-27.152 16.67-30.521 5.26-3.088-10.455-1.059-30.086 1.969-42.277z"/><path d="M98.787 70.531c1.585-4.124 6.696-5.55 10.182-2.837 1.885 1.467 4.194 3.557 6.983 6.528 10.366 11.045 12.473 10.976 14.42 10.748s18.397-3.721 18.397-3.721.842.622 1.338 1.627c.662 1.342.329 2.257.329 2.257.644-.417-5.831 4.049-9.054 5.83-4.257 2.351-10.671 4.556-13.225 5.393a3.41 3.41 0 0 1-2.222-.033c-3.791-1.367-16.524-6.35-26.889-14.995-2.731-2.278-1.728-6.972-.258-10.796z"/></g><path d="M94.561 63.2l1.258-2.835s11.258.919 13.15 7.329c0 0-8.727-4.357-14.408-4.494z" fill="#fff"/><g fill="#8cb4f4"><use href="#E" x="-117.008"/><use href="#E" x="-95.18"/></g><use href="#D" x="-124.953" fill="#73a2e5"/><path d="M68.432 129.594l-4.025-35.388c-.528-5.1 1.178-10.093 8.534-10.48l12.941-.789c7.67-.317 11.133 6.07 12.104 10.986l7.682 38.901-37.236-3.23z" fill="#8cb4f4"/><path d="M70.592 136.215h57.435c1.154 0 2.098-.944 2.098-2.099v-2.584c0-1.155-.944-2.099-2.098-2.099H68.494v4.683c0 1.155.944 2.099 2.098 2.099z" fill="#73a2e5"/><path d="M70.126 136.215h33.913c.896 0 1.629-.733 1.629-1.63v-3.522c0-.897-.733-1.63-1.629-1.63H68.496v5.152c0 .897.733 1.63 1.629 1.63z" fill="#8cb4f4"/><use href="#H" fill="#e8f2ff"/><use href="#H" stroke="#0668e1" stroke-width=".5"/><path d="M35.348 171.192c-.971 0-1.803-.171-2.496-.512-.683-.341-1.264-.773-1.744-1.296l1.6-1.616c.373.427.795.747 1.264.96.48.213.992.32 1.536.32.597 0 1.04-.123 1.328-.368s.432-.571.432-.976a1.27 1.27 0 0 0-.112-.544c-.064-.171-.192-.309-.384-.416-.181-.117-.448-.197-.8-.24l-1.104-.144c-.779-.107-1.424-.299-1.936-.576-.501-.288-.875-.661-1.12-1.12-.245-.469-.368-1.013-.368-1.632 0-.672.165-1.259.496-1.76.341-.512.821-.912 1.44-1.2.629-.288 1.381-.432 2.256-.432.843 0 1.584.139 2.224.416.64.267 1.189.651 1.648 1.152l-1.616 1.632a3.11 3.11 0 0 0-.976-.752c-.373-.203-.848-.304-1.424-.304-.544 0-.949.096-1.216.288a.93.93 0 0 0-.4.8c0 .256.043.464.128.624a.92.92 0 0 0 .432.368c.203.085.459.155.768.208l1.104.176c.768.117 1.403.315 1.904.592s.875.64 1.12 1.088.368.992.368 1.632c0 .715-.171 1.344-.512 1.888-.331.544-.821.971-1.472 1.28s-1.44.464-2.368.464zm9.744 0c-.853 0-1.584-.176-2.192-.528-.597-.363-1.056-.875-1.376-1.536-.309-.661-.464-1.44-.464-2.336 0-.885.149-1.653.448-2.304.309-.661.757-1.173 1.344-1.536s1.301-.544 2.144-.544c.928 0 1.675.203 2.24.608.576.395.997.917 1.264 1.568s.4 1.355.4 2.112v.704h-5.392v.128c0 .555.149.997.448 1.328.309.32.779.48 1.408.48.501 0 .901-.101 1.2-.304.309-.203.597-.437.864-.704l1.184 1.472c-.373.427-.864.768-1.472 1.024-.597.245-1.28.368-2.048.368zm-.048-7.04c-.32 0-.597.075-.832.224a1.43 1.43 0 0 0-.528.592c-.117.256-.176.56-.176.912v.128h2.944v-.144a2.32 2.32 0 0 0-.16-.896c-.096-.256-.251-.453-.464-.592-.203-.149-.464-.224-.784-.224zM58.093 171h-1.312c-.288 0-.56-.069-.816-.208-.245-.149-.443-.363-.592-.64-.149-.288-.224-.629-.224-1.024v-.208l.512.608h-.576c-.128.544-.411.96-.848 1.248-.437.277-.976.416-1.616.416-.843 0-1.488-.224-1.936-.672-.448-.459-.672-1.051-.672-1.776 0-.597.144-1.088.432-1.472.299-.384.715-.672 1.248-.864.544-.192 1.184-.288 1.92-.288h1.328v-.528c0-.405-.107-.725-.32-.96-.213-.245-.571-.368-1.072-.368-.469 0-.843.101-1.12.304a3.01 3.01 0 0 0-.688.688l-1.408-1.248a3.58 3.58 0 0 1 1.296-1.168c.523-.288 1.221-.432 2.096-.432 1.184 0 2.075.267 2.672.8.608.523.912 1.28.912 2.272v3.68h.784V171zm-3.152-3.536h-1.152c-.459 0-.805.08-1.04.24s-.352.395-.352.704v.24c0 .299.096.523.288.672s.464.224.816.224c.267 0 .507-.037.72-.112s.384-.192.512-.352c.139-.16.208-.368.208-.624v-.992zM62.05 171h-2.368v-8.4h2.368v1.424h.096a2.51 2.51 0 0 1 .768-1.136c.373-.32.869-.48 1.488-.48.576 0 1.067.144 1.472.432s.699.709.88 1.264h.048c.149-.469.453-.869.912-1.2s1.008-.496 1.648-.496c.811 0 1.429.293 1.856.88.437.576.656 1.392.656 2.448V171h-2.368v-5.072c0-.544-.096-.944-.288-1.2-.181-.267-.469-.4-.864-.4a1.62 1.62 0 0 0-.672.144c-.213.085-.389.219-.528.4-.128.181-.192.411-.192.688V171h-2.368v-5.072c0-.544-.096-.944-.288-1.2-.192-.267-.48-.4-.864-.4-.224 0-.443.048-.656.144-.213.085-.389.219-.528.4a1.1 1.1 0 0 0-.208.688V171z" fill="#0668e1"/><use href="#I" fill="#e8f2ff"/><use href="#I" stroke="#0668e1" stroke-width=".5"/><path d="M103.148 171.192c-.981 0-1.835-.213-2.56-.64-.715-.427-1.269-1.061-1.664-1.904-.395-.853-.592-1.904-.592-3.152 0-1.259.197-2.32.592-3.184.395-.875.949-1.536 1.664-1.984.725-.459 1.579-.688 2.56-.688.992 0 1.819.213 2.48.64.672.427 1.205 1.072 1.6 1.936l-1.808.96c-.16-.501-.421-.901-.784-1.2-.363-.309-.859-.464-1.488-.464-.789 0-1.419.267-1.888.8-.459.533-.688 1.28-.688 2.24v1.76c0 .949.229 1.691.688 2.224.469.523 1.099.784 1.888.784.629 0 1.141-.171 1.536-.512s.688-.763.88-1.264l1.712 1.008c-.395.832-.933 1.483-1.616 1.952-.683.459-1.52.688-2.512.688zM116.23 171h-1.136c-.31 0-.587-.069-.832-.208a1.56 1.56 0 0 1-.56-.64c-.128-.277-.192-.603-.192-.976V169l.512.56h-.576c-.139.533-.427.939-.864 1.216-.427.277-.95.416-1.568.416-.854 0-1.51-.224-1.968-.672-.459-.459-.688-1.056-.688-1.792 0-.576.138-1.051.416-1.424.288-.373.698-.656 1.232-.848s1.173-.288 1.92-.288h1.424v-.608c0-.459-.123-.816-.368-1.072-.246-.267-.64-.4-1.184-.4-.48 0-.87.107-1.168.32a3.01 3.01 0 0 0-.736.736l-1.216-1.088c.309-.48.72-.864 1.232-1.152.512-.299 1.189-.448 2.032-.448 1.12 0 1.973.261 2.56.784.597.512.896 1.243.896 2.192v3.936h.832V171zm-2.88-3.6h-1.312c-.534 0-.934.091-1.2.272-.267.171-.4.421-.4.752v.272c0 .331.112.581.336.752s.533.256.928.256c.309 0 .586-.043.832-.128.245-.096.442-.235.592-.416a1 1 0 0 0 .224-.656V167.4zm6.585 3.6h-2.048v-8.352h2.048v1.392h.08c.171-.448.437-.821.8-1.12.373-.309.885-.464 1.536-.464.853 0 1.509.288 1.968.864.469.565.704 1.365.704 2.4V171h-2.048v-5.072c0-.587-.107-1.029-.32-1.328-.213-.309-.565-.464-1.056-.464-.277 0-.544.053-.8.16-.256.096-.464.245-.624.448-.16.192-.24.437-.24.736V171zm12.542 0v-1.392h-.08c-.149.48-.432.864-.848 1.152s-.901.432-1.456.432c-.693 0-1.285-.171-1.776-.512-.48-.341-.848-.837-1.104-1.488-.256-.661-.384-1.456-.384-2.384s.128-1.712.384-2.352c.256-.651.624-1.147 1.104-1.488.491-.341 1.083-.512 1.776-.512.555 0 1.04.144 1.456.432.427.277.71.656.848 1.136h.08v-4.864h2.048V171h-2.048zm-1.728-1.504c.331 0 .624-.053.88-.16.267-.107.475-.261.624-.464s.224-.448.224-.736v-2.656a1.15 1.15 0 0 0-.224-.704c-.149-.203-.357-.357-.624-.464-.256-.117-.549-.176-.88-.176-.522 0-.949.181-1.28.544-.33.352-.496.827-.496 1.424v1.44c0 .587.166 1.061.496 1.424.331.352.758.528 1.28.528zm7.162-8.064c-.416 0-.72-.096-.912-.288a1.03 1.03 0 0 1-.288-.736v-.32c0-.299.096-.544.288-.736s.496-.288.912-.288.72.096.912.288.288.437.288.736v.32a1.03 1.03 0 0 1-.288.736c-.192.192-.496.288-.912.288zM136.887 171v-8.352h2.048V171h-2.048zm9.59 0v-1.392h-.08c-.149.48-.432.864-.848 1.152s-.901.432-1.456.432c-.693 0-1.285-.171-1.776-.512-.48-.341-.848-.837-1.104-1.488-.256-.661-.384-1.456-.384-2.384s.128-1.712.384-2.352c.256-.651.624-1.147 1.104-1.488.491-.341 1.083-.512 1.776-.512.555 0 1.04.144 1.456.432.427.277.71.656.848 1.136h.08v-4.864h2.048V171h-2.048zm-1.728-1.504c.331 0 .624-.053.88-.16.267-.107.475-.261.624-.464s.224-.448.224-.736v-2.656a1.15 1.15 0 0 0-.224-.704c-.149-.203-.357-.357-.624-.464-.256-.117-.549-.176-.88-.176-.522 0-.949.181-1.28.544-.33.352-.496.827-.496 1.424v1.44c0 .587.166 1.061.496 1.424.331.352.758.528 1.28.528zM158.167 171h-1.136c-.309 0-.587-.069-.832-.208-.235-.149-.421-.363-.56-.64-.128-.277-.192-.603-.192-.976V169l.512.56h-.576c-.139.533-.427.939-.864 1.216-.427.277-.949.416-1.568.416-.853 0-1.509-.224-1.968-.672-.459-.459-.688-1.056-.688-1.792 0-.576.139-1.051.416-1.424.288-.373.699-.656 1.232-.848s1.173-.288 1.92-.288h1.424v-.608c0-.459-.123-.816-.368-1.072-.245-.267-.64-.4-1.184-.4-.48 0-.869.107-1.168.32-.288.203-.533.448-.736.736l-1.216-1.088c.309-.48.72-.864 1.232-1.152.512-.299 1.189-.448 2.032-.448 1.12 0 1.973.261 2.56.784.597.512.896 1.243.896 2.192v3.936h.832V171zm-2.88-3.6h-1.312c-.533 0-.933.091-1.2.272-.267.171-.4.421-.4.752v.272c0 .331.112.581.336.752s.533.256.928.256c.309 0 .587-.043.832-.128a1.42 1.42 0 0 0 .592-.416 1 1 0 0 0 .224-.656V167.4zm8.555 3.6h-1.472c-.704 0-1.243-.181-1.616-.544-.363-.373-.544-.901-.544-1.584v-4.608h-1.232v-1.616h.64c.309 0 .517-.069.624-.208.117-.149.176-.368.176-.656v-1.424h1.84v2.288h1.712v1.616h-1.712v5.104h1.584V171zm5.218.192c-.821 0-1.525-.176-2.112-.528-.587-.363-1.04-.869-1.36-1.52-.309-.661-.464-1.44-.464-2.336 0-.875.155-1.637.464-2.288.309-.661.752-1.168 1.328-1.52.576-.363 1.269-.544 2.08-.544.875 0 1.589.192 2.144.576.565.384.981.896 1.248 1.536.277.629.416 1.328.416 2.096v.672h-5.552v.208c0 .597.171 1.083.512 1.456s.848.56 1.52.56c.501 0 .917-.107 1.248-.32.331-.224.624-.496.88-.816l1.104 1.232c-.341.459-.811.832-1.408 1.12-.587.277-1.269.416-2.048.416zm-.032-7.2a1.71 1.71 0 0 0-.944.256c-.267.16-.475.389-.624.688-.139.288-.208.624-.208 1.008v.128h3.424v-.144c0-.395-.064-.731-.192-1.008-.128-.288-.315-.512-.56-.672-.245-.171-.544-.256-.896-.256z" fill="#0668e1"/><path d="M201.501 165h9.722m-3.612-3l3.889 3-3.889 3m-10.112-3h-9.722m3.612-3l-3.889 3 3.889 3" stroke="#0668e1" stroke-width="1.25" stroke-linecap="round" stroke-linejoin="round"/><path d="M234.172 171h-7.36v-11.168h7.36v1.872h-5.248v2.72h4.64v1.856h-4.64v2.848h5.248V171zm4.154 0h-2.048v-8.352h2.048v1.392h.08c.16-.437.416-.811.768-1.12.362-.309.853-.464 1.472-.464.576 0 1.072.139 1.488.416.426.277.736.699.928 1.264h.032c.149-.459.448-.853.896-1.184s1.002-.496 1.664-.496c.81 0 1.44.288 1.888.864.448.565.672 1.365.672 2.4V171h-2.048v-5.072c0-.597-.112-1.045-.336-1.344-.214-.299-.55-.448-1.008-.448a1.9 1.9 0 0 0-.768.16 1.32 1.32 0 0 0-.576.448c-.139.192-.208.437-.208.736V171h-2.048v-5.072c0-.597-.112-1.045-.336-1.344s-.56-.448-1.008-.448a1.86 1.86 0 0 0-.752.16 1.32 1.32 0 0 0-.576.448c-.15.192-.224.437-.224.736V171zm12.155 3.2v-11.552h2.048v1.376h.064a2.06 2.06 0 0 1 .848-1.136c.427-.288.912-.432 1.456-.432.715 0 1.312.171 1.792.512s.848.837 1.104 1.488c.256.64.384 1.424.384 2.352s-.128 1.723-.384 2.384c-.256.651-.624 1.147-1.104 1.488s-1.077.512-1.792.512c-.544 0-1.024-.144-1.44-.432a2.22 2.22 0 0 1-.864-1.152h-.064v4.592h-2.048zm3.76-4.704c.533 0 .965-.176 1.296-.528.331-.363.496-.837.496-1.424v-1.44c0-.597-.165-1.072-.496-1.424-.331-.363-.763-.544-1.296-.544-.32 0-.613.059-.88.176-.256.107-.459.261-.608.464s-.224.437-.224.704v2.656c0 .288.075.533.224.736s.352.357.608.464c.267.107.56.16.88.16zm8.986 1.504h-1.104c-.694 0-1.211-.176-1.552-.528-.331-.352-.496-.848-.496-1.488v-9.824h2.048v10.208h1.104V171zm4.863.192c-.79 0-1.478-.176-2.064-.528-.576-.363-1.024-.869-1.344-1.52-.31-.661-.464-1.44-.464-2.336s.154-1.664.464-2.304c.32-.651.768-1.152 1.344-1.504.586-.363 1.274-.544 2.064-.544.8 0 1.488.181 2.064.544.586.352 1.034.853 1.344 1.504.32.64.48 1.408.48 2.304s-.16 1.675-.48 2.336c-.31.651-.758 1.157-1.344 1.52-.576.352-1.264.528-2.064.528zm0-1.648c.544 0 .97-.165 1.28-.496.309-.341.464-.827.464-1.456v-1.552c0-.629-.155-1.109-.464-1.44s-.736-.496-1.28-.496c-.523 0-.944.165-1.264.496-.31.331-.464.811-.464 1.44v1.552c0 .629.154 1.115.464 1.456.32.331.741.496 1.264.496zm9.227-2.48l1.456-4.416h1.92l-3.36 9.84c-.139.395-.304.72-.496.976a1.65 1.65 0 0 1-.752.56c-.299.117-.678.176-1.136.176h-1.232v-1.632h1.504l.384-1.168-2.992-8.752h2.032l1.456 4.416.544 2.112h.096l.576-2.112zm7.993 4.128c-.821 0-1.525-.176-2.112-.528-.587-.363-1.04-.869-1.36-1.52-.309-.661-.464-1.44-.464-2.336 0-.875.155-1.637.464-2.288.309-.661.752-1.168 1.328-1.52.576-.363 1.269-.544 2.08-.544.875 0 1.589.192 2.144.576.565.384.981.896 1.248 1.536.277.629.416 1.328.416 2.096v.672h-5.552v.208c0 .597.171 1.083.512 1.456s.848.56 1.52.56c.501 0 .917-.107 1.248-.32.331-.224.624-.496.88-.816l1.104 1.232c-.341.459-.811.832-1.408 1.12-.587.277-1.269.416-2.048.416zm-.032-7.2a1.71 1.71 0 0 0-.944.256c-.267.16-.475.389-.624.688-.139.288-.208.624-.208 1.008v.128h3.424v-.144c0-.395-.064-.731-.192-1.008-.128-.288-.315-.512-.56-.672-.245-.171-.544-.256-.896-.256zm7.626 7.008h-2.048v-8.352h2.048v1.728h.08a2.64 2.64 0 0 1 .368-.832c.181-.267.421-.48.72-.64.309-.171.683-.256 1.12-.256h.448v1.936H295c-.459 0-.848.048-1.168.144-.309.085-.544.224-.704.416-.149.181-.224.427-.224.736V171z" fill="#0668e1"/><defs><linearGradient id="A" x1="233.683" y1="51.602" x2="233.683" y2="78.741" gradientUnits="userSpaceOnUse"><stop stop-color="#ffd2b6"/><stop offset="1" stop-color="#ffb793"/></linearGradient><linearGradient id="B" x1="241.165" y1="59.981" x2="237.939" y2="59.981" gradientUnits="userSpaceOnUse"><stop stop-color="#ffd2b6"/><stop offset="1" stop-color="#ffb793"/></linearGradient><linearGradient id="C" x1="231.023" y1="64.383" x2="231.023" y2="68.07" gradientUnits="userSpaceOnUse"><stop stop-color="#ffd2b6"/><stop offset="1" stop-color="#ffb793"/></linearGradient><path id="D" d="M254.987 179.097l.078-.002c.636-.011 1.127-.531 1.067-1.129l-4.241-42.37-3.7.33 6.089 42.598c.048.333.352.579.707.573z"/><path id="E" d="M184.239 179.097l-.078-.002c-.636-.011-1.127-.531-1.067-1.129l4.241-42.37 3.7.33-6.089 42.598c-.048.333-.352.579-.707.573z"/><path id="F" d="M253.724 129.432l7.527-37.189c.966-5.035-3.204-9.639-8.619-9.516l-14.517.332a11.47 11.47 0 0 0-10.754 8.282l-11.013 38.091h37.376z"/><path id="G" d="M153.527 179.35h-20.376c-.98-1.196-.619-5.611-.47-7.053l.051-.46s6.958-5.568 7.914-1.304l.103.393c1.204 3.988 6.605 5.801 9.724 6.305 2.028.329 2.777 1.384 3.054 2.119z"/><path id="H" d="M30.5 150.25h54.75v29.5h-66.5V162l.004-.304a11.75 11.75 0 0 1 11.442-11.442l.304-.004z"/><path id="I" d="M296.5 150.25c6.489 0 11.75 5.261 11.75 11.75v17.75H85.75v-29.5H296.5z"/></defs></svg>