<svg xmlns="http://www.w3.org/2000/svg" width="328" height="180" fill="none" xmlns:v="https://vecta.io/nano"><style><![CDATA[.B{stroke:#000}.C{fill:#fff}.D{stroke-linecap:round}.E{stroke-miterlimit:10}.F{stroke:#0668e1}.G{stroke-width:.776}.H{fill:#0668e1}.I{fill:#0745b4}.J{fill:#ffa9a9}.K{stroke-width:.5}.L{stroke-linejoin:round}.M{stroke-width:.388}.N{stroke-width:.243}]]></style><rect x=".5" y=".5" width="327" height="179" rx="15.5" fill="#eaf0ff"/><rect x=".5" y=".5" width="327" height="179" rx="15.5" class="F"/><path opacity=".3" d="M190.653 26.297h-51.306c-2.401 0-4.347 1.967-4.347 4.394v71.211c0 2.427 1.946 4.395 4.347 4.395h51.306c2.401 0 4.347-1.968 4.347-4.395V30.691c0-2.427-1.946-4.394-4.347-4.394z" fill="url(#A)"/><use href="#K" class="C"/><path d="M139.93 34.792c2.153 1.773 3.939 3.647 5.181 5.675 1.158-2.603 5.79-8.617 8.143-10.068l-1.951-2.085s-4.21 4.553-6.297 9.05c-1.484-1.351-3.387-2.332-5.074-2.573h-.002z" fill="url(#B)"/><g class="C"><use href="#L"/><path d="M187.251 36.01c.287 0 .52.236.52.526s-.233.526-.52.526H158.5c-.286 0-.52-.237-.52-.526s.234-.526.52-.526h28.751zm0-.189H158.5a.71.71 0 0 0-.707.715.71.71 0 0 0 .707.715h28.751a.715.715 0 1 0 0-1.43zm-25.137 3.539c.286 0 .52.236.52.526s-.234.526-.52.526H158.5c-.286 0-.52-.236-.52-.526s.234-.526.52-.526h3.614zm0-.189H158.5a.71.71 0 0 0-.707.715.71.71 0 0 0 .707.715h3.614a.71.71 0 0 0 .707-.715.71.71 0 0 0-.707-.715zm8.346.189c.287 0 .521.236.521.526s-.234.526-.521.526h-5.772c-.287 0-.52-.236-.52-.526s.233-.526.52-.526h5.772zm0-.189h-5.772a.715.715 0 1 0 0 1.43h5.772a.715.715 0 1 0 0-1.43zm10.948.189c.286 0 .52.236.52.526s-.234.526-.52.526h-8.494c-.286 0-.52-.236-.52-.526s.234-.526.52-.526h8.494zm0-.189h-8.494a.71.71 0 0 0-.707.715.71.71 0 0 0 .707.715h8.494a.71.71 0 0 0 .707-.715.71.71 0 0 0-.707-.715z"/><use href="#M"/></g><path d="M139.93 54.299c2.153 1.773 3.939 3.647 5.181 5.675 1.158-2.603 5.79-8.617 8.143-10.068l-1.951-2.085s-4.21 4.553-6.297 9.05c-1.484-1.351-3.387-2.333-5.074-2.573h-.002z" fill="url(#C)"/><g class="C"><use href="#L" y="19.506"/><use href="#N"/><path d="M162.653 60.111h-4.149a.71.71 0 0 1-.707-.715.71.71 0 0 1 .707-.715h4.149a.71.71 0 0 1 .707.715.71.71 0 0 1-.707.715zm13.521-1.243c.286 0 .52.236.52.526s-.234.526-.52.526h-10.935c-.287 0-.521-.236-.521-.526s.234-.526.521-.526h10.935zm0-.189h-10.935a.715.715 0 1 0 0 1.43h10.935a.71.71 0 0 0 .707-.715.71.71 0 0 0-.707-.715z"/><use href="#M" y="19.509"/><path d="M167.506 72.919H158.5a.71.71 0 0 1-.707-.715.71.71 0 0 1 .707-.715h9.006a.715.715 0 1 1 0 1.43zm16.378-1.243c.287 0 .521.236.521.526s-.234.526-.521.526h-13.083c-.286 0-.52-.236-.52-.526s.234-.526.52-.526h13.083zm0-.189h-13.083a.71.71 0 0 0-.707.715.71.71 0 0 0 .707.715h13.083a.715.715 0 1 0 0-1.43z"/><use href="#N" y="19.506"/><use href="#O"/><use href="#K" y="58.524"/><use href="#N" y="35.664"/><use href="#N" y="39.015"/><use href="#O" y="19.508"/></g><path d="M114.554 111.564s4.335 12.739 6.519 21.328l6.143 23.879h-23.708v-28.247l11.044-16.96h.002z" fill="#2b478b"/><path d="M151.559 57.458v.006c-.024 1.062-.683 1.462-1.534 1.081-.33-.149-.447-.372-.46-.398v-.004c-.693 1.083-1.765-.154-1.765-.154-.214.567-.712.958-1.168 1.038l-1.477 3.198c-1.556 4.816-7.3 22.192-10.822 27.814-1.2 1.914-16.075-.188-16.075-.188l4.791-12.002 4.506.549 11.149-19.312 1.149-2.893s2.172-6.181 2.479-7.651 3.045-4.779 5.126-7.787c1.215-1.754 2.578-.229 1.56 2.353l-2.014 5.06s4.064 3.175 4.468 3.914c.292.534.219 3.493.087 5.38v-.002z" fill="url(#D)"/><path d="M141.031 54.407s.692-2.366 2.219-3.421 2.712-1.293 3.458-1.784 1.547.037 1.218 1.129c-.314 1.047-2.184 2.911-2.184 2.911s.824 2.13-1.091 3.804m4.911.818l.22-4.257m-3.985 1.674s-.136 1.294.385 1.886c.428.486 1.564.627 1.616-.266l.205-3.869" class="B D L N"/><path d="M82.644 59.957s1.929 3.214 2.2 5.683-7.131 9.457-1.101 14.335 28.707 3.041 29.475-3.864-6.353-10.692-6.457-15.719c-.212-10.082-2.747-8.736-4.081-10.772s-7.302-.874-7.519-.51-12.517 10.845-12.517 10.845v.002zm29.449 96.815h-8.585v-28.247l.435-.668c3.041 2.083 8.628-1.985 8.628-1.985-.216 3.49-.763 6.111-2.053 9.13l1.575 21.768v.002z" fill="#000"/><path d="M89.648 113.956s-1.406 4.857-4.501 10.132-5.628 9.076-4.784 14.776 4.561 17.871 4.561 17.871h22.804l1.334-21.951s5.732-10.272 5.49-23.221c0 0-6.404-3.733-24.904 2.391v.002z" fill="#2b478b"/><path d="M94.479 121.945s7.088.502 8.622-7.828h1.408s-.316 4.679-3.325 7.785-7.715 2.549-7.715 2.549l1.008-2.504.002-.002z" fill="#000"/><path d="M96.378 113.021s-.8 6.697-2.911 11.428-4.294 7.643-5.094 11.209 2.111 21.076 2.111 21.076" class="B D L N"/><path d="M72.273 85.391l-9.867 7.686-22.845-3.905-1.741 5.277s22.054 9.814 25.694 9.868 16.04-9.463 16.04-9.463l-7.281-9.463v-.002z" fill="url(#E)"/><path d="M121.434 93.974c5.099-8.724 2.544-16.411 2.544-16.411l-17.217-2.322-12.121-1.373s-5.803-.737-8.756 0-15.02 11.946-15.02 11.946 5.204 11.678 11.89 13.507l4.361-2.883s2.816 13.016 2.531 17.518c0 0 5.076 1.371 15.168.595 8.574-.661 9.734-2.984 9.734-2.984l-.242-12.949c.339-.679 1.215-2.997 1.898-5.123l5.228.482.002-.004z" fill="#0374ff"/><path d="M98.968 48.978c-7.633-3.166-16.497 4.639-13.542 11.89 1.674 4.109 4.689 6.533 7.912 7.738l-1.06 5.037s1.713 3.828 6.11 4.321c3.833.43 5.118-2.163 5.118-2.163l-2.246-6.464c1.703-.318 3.126-.951 4.006-1.786 3.534-3.358-2.42-16.967-6.296-18.576l-.002.002z" fill="url(#F)"/><g fill="#000"><path d="M97.893 50.495s.941 3.014-.694 6.315c-2.803 5.659-11.935 7.128-11.935 7.128s-5.435-4.757-2.329-12.035 13.129-9.318 14.959-4.853c0 0 4.055-2.353 4.79 2.573 0 0-1.661 2.694-4.79.874l-.002-.002z"/><path d="M92.107 58.684c-2.232 4.148 1.86 6.957 1.235 9.926 0 0-1.374.666-1.572.666s-3.982-1.94-3.982-1.94l-1.261-1.751-.437-3.879 1.068-2.792"/></g><path d="M90.066 61.995s-1.401-1.564-2.673-.365c-1.036.979-.184 3.466 2.098 4.117.781.223 1.432-.197 1.103-.986-.277-.666-.487-1.832-.528-2.766z" fill="url(#G)"/><path d="M91.376 93.44l-3.219 8.224-1.04-5.227 4.259-2.997zm26.641.219l-1.809-.166c.448-1.401.814-2.72.887-3.432.205-1.99-.928-3.94-2.197-5.663.153.143 2.608 2.467 3.359 4.771.374 1.148.121 2.943-.24 4.489z" fill="#000"/><path d="M101.258 69.34s-3.577.275-6.074-1.521c0 0 2.183 4.172 6.95 4.038l-.876-2.518v.002z" fill="url(#H)" style="mix-blend-mode:multiply"/><path d="M38.971 101.662H20.616a1.63 1.63 0 0 1-1.566-1.183l-6.013-21.206a.96.96 0 0 1 .921-1.218h18.355a1.63 1.63 0 0 1 1.566 1.183l6.015 21.206a.96.96 0 0 1-.921 1.218h-.002z" class="H"/><path d="M39.903 101.662H21.546a1.63 1.63 0 0 1-1.566-1.183l-6.013-21.206a.96.96 0 0 1 .921-1.218h18.355a1.63 1.63 0 0 1 1.566 1.183l6.015 21.206a.96.96 0 0 1-.921 1.218z" fill="#aad0ff"/><path d="M33.901 87.81H20.099c-.668 0-1.358-.541-1.542-1.209s.21-1.209.878-1.209h13.802c.668 0 1.358.541 1.542 1.209s-.21 1.209-.878 1.209zm1.449 5.057H21.548c-.668 0-1.358-.541-1.542-1.209s.21-1.209.878-1.209h13.802c.668 0 1.358.541 1.542 1.209s-.21 1.209-.878 1.209z" class="C"/><path d="M41.451 89.496s-1.918-3.374-2.572-3.919-5.141-2.58-5.414-2.615c-.603-.08-.8 1.685-.11 2.785s4.11 2.868 4.11 2.868l1.055 3.717 2.931-2.833v-.002z" fill="url(#I)"/><path d="M223.411 115.699l3.106 7.869c.785 2.268 3.83 26.015 3.83 26.015h39.474s.509-20.62-1.225-30.644l-1.734-10.024-13.44-11.379-14.199 3.796-8.876-.486-6.936 14.853z" class="C"/><path d="M221.789 121.723l-14.811 4.742" class="B D E G"/><path d="M217.394 138.722l8.975-17.85c2.286-4.552 4.921-14.638.41-16.948s-11.456.311-13.741 4.863l-11.981 21.567c-2.286 4.552-.485 10.116 4.032 12.42 4.499 2.311 10.013.494 12.305-4.052zm19.209-29.179l-1.622-6.862 8.566-3.37-2.907 10.233 1.052 28.551-4.632 5.472-3.709-4.977 3.252-29.046z" class="I"/><path d="M240.645 109.542h-4.038" class="B E G"/><path d="M245.926 149.577c.371-10.015 3.994-41.841 7.505-52.048l6.271.912 9.618 51.136h-23.394z" class="I"/><path d="M253.426 97.529l-9.601 10.832-5.15-7.088-4.158 6.628-4.167-7.054" class="B D E G"/><path d="M238.675 101.276l11.248-7.488 3.503 3.744-9.601 10.831-5.15-7.087zm-6.187-3.947l6.176 3.944-4.158 6.627-4.166-7.053 2.148-3.518z" class="C"/><path d="M230.77 100.122s-.692 13.902-.295 25.141c.397 11.232 1.63 24.322 1.63 24.322s-4.986.208-5.063 0-3.019-21.638-3.416-24.252-2.847-7.878-2.847-7.878l1.268-14.39 8.723-2.943z" class="I"/><path d="M227.031 149.577c-.077-.217-3.019-21.637-3.416-24.251s-2.846-7.879-2.846-7.879m9.942 17.267s-5.849-16.747-5.409-32.356" class="B E M"/><path d="M239.892 135.942c-3.934.548-7.928 1.104-11.568 2.78-3.33 1.529-5.064 2.719-7.255 5.768-.311.425-1.587 2.015-1.156 2.527.345.426 1.07.374 1.501.269.673.652 1.285.565 2.208.105.25.495 1.467.495 2.623.121.396.4 1.156.713 2.329.634l8.065-.755 8.377-.105" class="J"/><path d="M258.334 98.419s8.549.061 11.499 1.016c3.71 1.199 5.927 8.096 7.678 17.564 2.45 13.194 2.087 16.877 2.346 19.535.526 5.342.078 13.541-9.877 13.541-14.863 0-28.381-.121-28.381-.121l-3.511-14.341 22.412-2.979-2.114-18.024" class="I"/><g class="B E"><path d="M226.244 147.514s2.036-1.842 3.977-2.172l4.494-.616m-2.61-2.379s-3.942.903-5.451 1.763-3.028 3.283-3.028 3.283m5.784-7.051s-4.201 1.268-5.78 3.031c-.992 1.138-1.742 2.476-2.208 3.909m37.176-48s-3.602 21.773-9.173 34.474m-11.328 1.866l22.403-2.97-2.105-18.033m2.114 18.031s4.581-.903 9.386 1.364" class="M"/><g class="G"><path d="M240.521 144.841h5.737m-3.87-3.185l.417 1.261"/><path d="M245.001 141.656l.417 1.261"/></g></g><path d="M246.921 85.726l3.985 11.37s-8.264 4.83-12.232 4.178-5.159-1.667-5.159-1.667l-1.026-9.824 13.431-5.559 1.881-.677-.88 2.18z" class="J"/><path d="M233.567 99.499s10.062-5.759 9.246-6.855c-1.36-2.469-9.79 1.647-9.79 1.647l.544 5.208z" fill="url(#J)"/><path d="M230.917 92.959c-2.122-3.275-2.191-8.99-1.871-13.029.207-2.658.871-4.925 2.846-6.645 3.218-2.806 9.325-4.612 12.871-1.06 2.967 2.971 3.675 7.314 3.045 11.301-.492 3.118-1.311 5.246-3.347 7.6-2.045 2.354-6.366 4.517-9.394 4.178-1.881-.226-3.14-.791-4.15-2.345z" class="J"/><path d="M223.339 76.424l-.13-.287c-.681-1.668-.094-3.831 1.415-4.743.69-.417 1.51-.582 2.191-.999 1.432-.895 1.984-2.771 3.252-3.9 2.347-2.111 5.573-.226 8.247-.113l3.865.069c2.001.104 4.037.547 5.745 1.65 2.898 1.868 4.477 5.42 4.684 8.903s-.267 7.644-4.158 13.107c-1.268-2.076-1.527-7.244-2.795-9.32-.138-.226.802-.365.613-.547a3.28 3.28 0 0 0-.828-.547c-.863-.443-1.76-.903-2.718-.903-.811 0-1.63.33-2.407.087-.948-.304-1.483-1.373-1.621-2.38-.112-.834-.19-1.928-.975-2.18-1.07-.347-1.768 1.338-2.881 1.442-.371.035-.734-.122-1.087-.235-.794-.243-1.682-.304-2.467-.035-.639.243-1.165.73-1.45 1.364-.431.895-.966 1.251-1.966 1.581-1.734.547-3.744-.443-4.529-2.015z" fill="#1b140f"/><path d="M244.066 81.798c.346-1.416 1.631-2.397 2.675-2.363 1.544.052 2.484 1.503 2.743 2.866a5.19 5.19 0 0 1-.5 3.501c-.561 1.077-1.847 2.337-3.089 2.258-.845-.061-1.432-.999-1.604-1.746" class="J"/><g class="E"><g class="M"><path d="M246.086 84.989s.213-.775.556-1.121 1.112-.561 1.112-.561" stroke="#1b1c17" class="D"/><g class="B"><path d="M244.286 86.646c.216.382.863 1.677 2.191 1.399.604-.122 2.401-1.648 3.359-3.897"/><path d="M232.011 81.548c-.164.834-.302 3.639-.362 4.499-.026.33-.009.73.259.921.181.104.388.139.595.104a6.92 6.92 0 0 0 1.915-.452" class="D"/></g></g><path d="M239.023 78.627a10.26 10.26 0 0 0-4.347-1.372m-3.621.645c-1.087.365-2.217.764-2.959 1.737" class="G B D"/></g><path d="M234.863 81.408c0 .504.241.929.552.938.31.017.561-.391.569-.895s-.241-.929-.552-.938c-.31-.017-.561.382-.569.895zm-5.469 1.139c0 .504.242.929.552.938.311.017.561-.391.569-.895s-.241-.929-.552-.938c-.31-.017-.56.382-.569.895z" fill="#000"/><path d="M232.211 89.938s1.79-.045 2.719-.274c1.021-.252 1.904-.823 1.904-.823s.753 1.914-1.57 2.593-3.053-1.496-3.053-1.496z" class="C"/><g stroke="#f17d52" class="E K"><path d="M229.145 86.23c-1.028-.052-1.791-1.508-1.704-3.252s.991-3.116 2.019-3.064 1.79 1.508 1.703 3.252-.991 3.116-2.018 3.064zm8.988-5.407c.104 1.728-.914 3.405-2.268 3.752s-2.537-.773-2.631-2.502.914-3.405 2.268-3.752c1.355-.356 2.536.764 2.631 2.502z"/><path d="M230.957 81.435l2.398-.617m4.728-.982l6.573.834"/></g><path d="M181.306 122.789c-.727 0-1.294.863-.958 1.689v.001l10.367 25.771h61.509c1.018 0 1.894-.852 2.005-2.002h-21.92l-.063-.156-9.791-24.339-.004-.009a1.45 1.45 0 0 0-1.199-.947l-.11-.008h-39.836z" fill="#c4d8ff" class="F K"/><path d="M232.961 144.013c0 2.152 1.411 3.597 3.514 3.597h.854a2.45 2.45 0 0 0 2.448 2.39h7.071a2.45 2.45 0 0 0 2.45-2.451v-9.523h-11.972v1.938h-1.277c-1.195 0-2.251.691-2.696 1.762-.261.627-.392 1.399-.392 2.29v-.003zm1.263 0c0-.725.1-1.331.297-1.806.243-.586.856-.98 1.528-.98h1.277v5.123h-.851c-1.39 0-2.251-.896-2.251-2.334v-.003zm-119.673-2.29c-.443-1.071-1.502-1.762-2.696-1.762h-1.278v-1.938H98.606v9.523a2.45 2.45 0 0 0 2.45 2.451h7.071a2.45 2.45 0 0 0 2.448-2.39h.854c2.102 0 3.514-1.445 3.514-3.597 0-.89-.132-1.662-.392-2.29v.003zm-3.122 4.624h-.852v-5.123h1.278c.671 0 1.285.394 1.528.981.197.474.297 1.08.297 1.805 0 1.441-.864 2.334-2.251 2.334v.003z" class="C"/><use href="#P" fill="#e8f2ff"/><use href="#P" class="F K"/><path d="M39.348 171.192c-.971 0-1.803-.171-2.496-.512-.683-.341-1.264-.773-1.744-1.296l1.6-1.616c.373.427.795.747 1.264.96.48.213.992.32 1.536.32.597 0 1.04-.123 1.328-.368s.432-.571.432-.976a1.27 1.27 0 0 0-.112-.544c-.064-.171-.192-.309-.384-.416-.181-.117-.448-.197-.8-.24l-1.104-.144c-.779-.107-1.424-.299-1.936-.576-.501-.288-.875-.661-1.12-1.12-.245-.469-.368-1.013-.368-1.632 0-.672.165-1.259.496-1.76.341-.512.821-.912 1.44-1.2.629-.288 1.381-.432 2.256-.432.843 0 1.584.139 2.224.416.64.267 1.189.651 1.648 1.152l-1.616 1.632a3.11 3.11 0 0 0-.976-.752c-.373-.203-.848-.304-1.424-.304-.544 0-.949.096-1.216.288a.93.93 0 0 0-.4.8c0 .256.043.464.128.624a.92.92 0 0 0 .432.368c.203.085.459.155.768.208l1.104.176c.768.117 1.403.315 1.904.592s.875.64 1.12 1.088.368.992.368 1.632c0 .715-.171 1.344-.512 1.888-.331.544-.821.971-1.472 1.28s-1.44.464-2.368.464zm9.744 0c-.853 0-1.584-.176-2.192-.528-.597-.363-1.056-.875-1.376-1.536-.309-.661-.464-1.44-.464-2.336 0-.885.149-1.653.448-2.304.309-.661.757-1.173 1.344-1.536s1.301-.544 2.144-.544c.928 0 1.675.203 2.24.608.576.395.997.917 1.264 1.568s.4 1.355.4 2.112v.704h-5.392v.128c0 .555.149.997.448 1.328.309.32.779.48 1.408.48.501 0 .901-.101 1.2-.304.309-.203.597-.437.864-.704l1.184 1.472c-.373.427-.864.768-1.472 1.024-.597.245-1.28.368-2.048.368zm-.048-7.04c-.32 0-.597.075-.832.224a1.43 1.43 0 0 0-.528.592c-.117.256-.176.56-.176.912v.128h2.944v-.144a2.32 2.32 0 0 0-.16-.896c-.096-.256-.251-.453-.464-.592-.203-.149-.464-.224-.784-.224zM62.093 171h-1.312c-.288 0-.56-.069-.816-.208-.245-.149-.443-.363-.592-.64-.149-.288-.224-.629-.224-1.024v-.208l.512.608h-.576c-.128.544-.411.96-.848 1.248-.437.277-.976.416-1.616.416-.843 0-1.488-.224-1.936-.672-.448-.459-.672-1.051-.672-1.776 0-.597.144-1.088.432-1.472.299-.384.715-.672 1.248-.864.544-.192 1.184-.288 1.92-.288h1.328v-.528c0-.405-.107-.725-.32-.96-.213-.245-.571-.368-1.072-.368-.469 0-.843.101-1.12.304a3.01 3.01 0 0 0-.688.688l-1.408-1.248a3.58 3.58 0 0 1 1.296-1.168c.523-.288 1.221-.432 2.096-.432 1.184 0 2.075.267 2.672.8.608.523.912 1.28.912 2.272v3.68h.784V171zm-3.152-3.536h-1.152c-.459 0-.805.08-1.04.24s-.352.395-.352.704v.24c0 .299.096.523.288.672s.464.224.816.224c.267 0 .507-.037.72-.112s.384-.192.512-.352c.139-.16.208-.368.208-.624v-.992zM66.05 171h-2.368v-8.4h2.368v1.424h.096a2.51 2.51 0 0 1 .768-1.136c.373-.32.869-.48 1.488-.48.576 0 1.067.144 1.472.432s.699.709.88 1.264h.048c.149-.469.453-.869.912-1.2s1.008-.496 1.648-.496c.811 0 1.429.293 1.856.88.437.576.656 1.392.656 2.448V171h-2.368v-5.072c0-.544-.096-.944-.288-1.2-.181-.267-.469-.4-.864-.4a1.62 1.62 0 0 0-.672.144c-.213.085-.389.219-.528.4-.128.181-.192.411-.192.688V171h-2.368v-5.072c0-.544-.096-.944-.288-1.2-.192-.267-.48-.4-.864-.4-.224 0-.443.048-.656.144-.213.085-.389.219-.528.4a1.1 1.1 0 0 0-.208.688V171z" class="H"/><use href="#Q" fill="#e8f2ff"/><use href="#Q" class="F K"/><path d="M110.172 171h-7.36v-11.168h7.36v1.872h-5.248v2.72h4.64v1.856h-4.64v2.848h5.248V171zm4.154 0h-2.048v-8.352h2.048v1.392h.08c.16-.437.416-.811.768-1.12.362-.309.853-.464 1.472-.464.576 0 1.072.139 1.488.416.426.277.736.699.928 1.264h.032c.149-.459.448-.853.896-1.184s1.002-.496 1.664-.496c.81 0 1.44.288 1.888.864.448.565.672 1.365.672 2.4V171h-2.048v-5.072c0-.597-.112-1.045-.336-1.344-.214-.299-.55-.448-1.008-.448a1.9 1.9 0 0 0-.768.16 1.32 1.32 0 0 0-.576.448c-.139.192-.208.437-.208.736V171h-2.048v-5.072c0-.597-.112-1.045-.336-1.344s-.56-.448-1.008-.448a1.86 1.86 0 0 0-.752.16 1.32 1.32 0 0 0-.576.448c-.15.192-.224.437-.224.736V171zm12.155 3.2v-11.552h2.048v1.376h.064a2.06 2.06 0 0 1 .848-1.136c.427-.288.912-.432 1.456-.432.715 0 1.312.171 1.792.512s.848.837 1.104 1.488c.256.64.384 1.424.384 2.352s-.128 1.723-.384 2.384c-.256.651-.624 1.147-1.104 1.488s-1.077.512-1.792.512c-.544 0-1.024-.144-1.44-.432a2.22 2.22 0 0 1-.864-1.152h-.064v4.592h-2.048zm3.76-4.704c.533 0 .965-.176 1.296-.528.331-.363.496-.837.496-1.424v-1.44c0-.597-.165-1.072-.496-1.424-.331-.363-.763-.544-1.296-.544-.32 0-.613.059-.88.176-.256.107-.459.261-.608.464s-.224.437-.224.704v2.656c0 .288.075.533.224.736s.352.357.608.464c.267.107.56.16.88.16zm8.986 1.504h-1.104c-.694 0-1.211-.176-1.552-.528-.331-.352-.496-.848-.496-1.488v-9.824h2.048v10.208h1.104V171zm4.863.192c-.79 0-1.478-.176-2.064-.528-.576-.363-1.024-.869-1.344-1.52-.31-.661-.464-1.44-.464-2.336s.154-1.664.464-2.304c.32-.651.768-1.152 1.344-1.504.586-.363 1.274-.544 2.064-.544.8 0 1.488.181 2.064.544.586.352 1.034.853 1.344 1.504.32.64.48 1.408.48 2.304s-.16 1.675-.48 2.336c-.31.651-.758 1.157-1.344 1.52-.576.352-1.264.528-2.064.528zm0-1.648c.544 0 .97-.165 1.28-.496.309-.341.464-.827.464-1.456v-1.552c0-.629-.155-1.109-.464-1.44s-.736-.496-1.28-.496c-.523 0-.944.165-1.264.496-.31.331-.464.811-.464 1.44v1.552c0 .629.154 1.115.464 1.456.32.331.741.496 1.264.496zm9.227-2.48l1.456-4.416h1.92l-3.36 9.84c-.139.395-.304.72-.496.976a1.65 1.65 0 0 1-.752.56c-.299.117-.678.176-1.136.176h-1.232v-1.632h1.504l.384-1.168-2.992-8.752h2.032l1.456 4.416.544 2.112h.096l.576-2.112zm7.993 4.128c-.821 0-1.525-.176-2.112-.528-.587-.363-1.04-.869-1.36-1.52-.309-.661-.464-1.44-.464-2.336 0-.875.155-1.637.464-2.288.309-.661.752-1.168 1.328-1.52.576-.363 1.269-.544 2.08-.544.875 0 1.589.192 2.144.576.565.384.981.896 1.248 1.536.277.629.416 1.328.416 2.096v.672h-5.552v.208c0 .597.171 1.083.512 1.456s.848.56 1.52.56c.501 0 .917-.107 1.248-.32.331-.224.624-.496.88-.816l1.104 1.232c-.341.459-.811.832-1.408 1.12-.587.277-1.269.416-2.048.416zm-.032-7.2a1.71 1.71 0 0 0-.944.256c-.267.16-.475.389-.624.688-.139.288-.208.624-.208 1.008v.128h3.424v-.144c0-.395-.064-.731-.192-1.008-.128-.288-.315-.512-.56-.672-.245-.171-.544-.256-.896-.256zm7.626 7.008h-2.048v-8.352h2.048v1.728h.08a2.64 2.64 0 0 1 .368-.832c.181-.267.421-.48.72-.64.309-.171.683-.256 1.12-.256h.448v1.936H171c-.459 0-.848.048-1.168.144-.309.085-.544.224-.704.416-.149.181-.224.427-.224.736V171z" class="H"/><path d="M200.501 165h9.722m-3.612-3l3.889 3-3.889 3m-10.112-3h-9.722m3.612-3l-3.889 3 3.889 3" stroke-width="1.25" class="D F L"/><path d="M227.924 166.696V171h-2.112v-11.168h5.04c.683 0 1.269.144 1.76.432.491.277.869.677 1.136 1.2.267.512.4 1.12.4 1.824 0 .757-.176 1.419-.528 1.984-.341.555-.859.949-1.552 1.184l2.288 4.544h-2.352l-2.08-4.304h-2zm0-1.776h2.72c.277 0 .512-.048.704-.144a1.17 1.17 0 0 0 .448-.432c.107-.192.16-.421.16-.688v-.736c0-.277-.053-.507-.16-.688a1.06 1.06 0 0 0-.448-.416c-.192-.096-.427-.144-.704-.144h-2.72v3.248zm11.527 6.272c-.822 0-1.526-.176-2.112-.528-.587-.363-1.04-.869-1.36-1.52-.31-.661-.464-1.44-.464-2.336 0-.875.154-1.637.464-2.288.309-.661.752-1.168 1.328-1.52.576-.363 1.269-.544 2.08-.544.874 0 1.589.192 2.144.576.565.384.981.896 1.248 1.536.277.629.416 1.328.416 2.096v.672h-5.552v.208c0 .597.17 1.083.512 1.456s.848.56 1.52.56c.501 0 .917-.107 1.248-.32a4 4 0 0 0 .88-.816l1.104 1.232c-.342.459-.811.832-1.408 1.12-.587.277-1.27.416-2.048.416zm-.032-7.2c-.363 0-.678.085-.944.256-.267.16-.475.389-.624.688-.139.288-.208.624-.208 1.008v.128h3.424v-.144c0-.395-.064-.731-.192-1.008-.128-.288-.315-.512-.56-.672-.246-.171-.544-.256-.896-.256zm8.874 7.2c-1.238 0-2.192-.395-2.864-1.184-.662-.789-.992-1.856-.992-3.2 0-1.333.33-2.389.992-3.168.672-.789 1.626-1.184 2.864-1.184.842 0 1.536.187 2.08.56.554.373.954.891 1.2 1.552l-1.68.752c-.096-.352-.278-.64-.544-.864-.267-.235-.619-.352-1.056-.352-.566 0-.992.181-1.28.544-.288.352-.432.827-.432 1.424v1.52c0 .576.144 1.045.432 1.408s.714.544 1.28.544c.48 0 .853-.123 1.12-.368a2.57 2.57 0 0 0 .64-.944l1.568.752c-.267.736-.688 1.291-1.264 1.664-.566.363-1.254.544-2.064.544zm6.955-.192H253.2v-8.352h2.048v1.728h.08a2.62 2.62 0 0 1 .368-.832c.181-.267.421-.48.72-.64.309-.171.682-.256 1.12-.256h.448v1.936h-.64c-.459 0-.848.048-1.168.144-.31.085-.544.224-.704.416-.15.181-.224.427-.224.736V171zm9.225 0v-1.392h-.08a2.53 2.53 0 0 1-.752 1.104c-.363.32-.891.48-1.584.48-.853 0-1.515-.283-1.984-.848-.459-.576-.688-1.381-.688-2.416v-5.28h2.048v5.072c0 .576.112 1.019.336 1.328.224.299.581.448 1.072.448.267 0 .523-.048.768-.144a1.46 1.46 0 0 0 .624-.432c.16-.203.24-.453.24-.752v-5.52h2.048V171h-2.048zm5.438-9.568c-.416 0-.72-.096-.912-.288a1.03 1.03 0 0 1-.288-.736v-.32c0-.299.096-.544.288-.736s.496-.288.912-.288.72.096.912.288.288.437.288.736v.32a1.03 1.03 0 0 1-.288.736c-.192.192-.496.288-.912.288zM268.887 171v-8.352h2.048V171h-2.048zm8.486 0h-1.472c-.704 0-1.242-.181-1.616-.544-.362-.373-.544-.901-.544-1.584v-4.608h-1.232v-1.616h.64c.31 0 .518-.069.624-.208.118-.149.176-.368.176-.656v-1.424h1.84v2.288h1.712v1.616h-1.712v5.104h1.584V171zm5.218.192c-.821 0-1.525-.176-2.112-.528-.586-.363-1.04-.869-1.36-1.52-.309-.661-.464-1.44-.464-2.336 0-.875.155-1.637.464-2.288.31-.661.752-1.168 1.328-1.52.576-.363 1.27-.544 2.08-.544.875 0 1.59.192 2.144.576.566.384.982.896 1.248 1.536.278.629.416 1.328.416 2.096v.672h-5.552v.208c0 .597.171 1.083.512 1.456s.848.56 1.52.56c.502 0 .918-.107 1.248-.32.331-.224.624-.496.88-.816l1.104 1.232c-.341.459-.81.832-1.408 1.12-.586.277-1.269.416-2.048.416zm-.032-7.2c-.362 0-.677.085-.944.256-.266.16-.474.389-.624.688-.138.288-.208.624-.208 1.008v.128h3.424v-.144c0-.395-.064-.731-.192-1.008a1.51 1.51 0 0 0-.56-.672c-.245-.171-.544-.256-.896-.256zm7.626 7.008h-2.048v-8.352h2.048v1.728h.08a2.64 2.64 0 0 1 .368-.832c.181-.267.421-.48.72-.64.309-.171.683-.256 1.12-.256h.448v1.936h-.64c-.459 0-.848.048-1.168.144-.309.085-.544.224-.704.416-.149.181-.224.427-.224.736V171z" class="H"/><defs><linearGradient id="A" x1="165.001" y1="25.465" x2="165.001" y2="103.548" href="#R"><stop stop-color="#6f95ed"/><stop offset="1" stop-color="#5873ec"/></linearGradient><linearGradient id="B" x1="139.93" y1="34.391" x2="153.254" y2="34.391" href="#R"><stop stop-color="#53b0b1"/><stop offset="1" stop-color="#6acad8"/></linearGradient><linearGradient id="C" x1="-21.712" y1="53.897" x2="-21.525" y2="53.897" href="#R"><stop stop-color="#53b0b1"/><stop offset="1" stop-color="#6acad8"/></linearGradient><linearGradient id="D" x1="150.335" y1="42.18" x2="130.535" y2="81.193" href="#R"><stop stop-color="#ffd2b6"/><stop offset="1" stop-color="#ffb793"/></linearGradient><linearGradient id="E" x1="42.621" y1="93.352" x2="69.55" y2="94.953" href="#R"><stop stop-color="#ffd2b6"/><stop offset="1" stop-color="#ffb793"/></linearGradient><linearGradient id="F" x1="95.593" y1="53.821" x2="95.593" y2="85.144" href="#R"><stop stop-color="#ffd2b6"/><stop offset="1" stop-color="#ffb793"/></linearGradient><linearGradient id="G" x1="86.956" y1="63.493" x2="90.68" y2="63.493" href="#R"><stop stop-color="#ffd2b6"/><stop offset="1" stop-color="#ffb793"/></linearGradient><linearGradient id="H" x1="98.66" y1="68.574" x2="98.66" y2="72.829" href="#R"><stop stop-color="#ffd2b6"/><stop offset="1" stop-color="#ffb793"/></linearGradient><linearGradient id="I" x1="42.937" y1="88.056" x2="69.864" y2="89.657" href="#R"><stop stop-color="#ffd2b6"/><stop offset="1" stop-color="#ffb793"/></linearGradient><linearGradient id="J" x1="234.166" y1="99.666" x2="240.833" y2="92.166" href="#R"><stop stop-color="#ffa9a9"/><stop offset="1" stop-color="#ff9494"/></linearGradient><path id="K" d="M150.03 31.041h-7.028c-1.106 0-2.002.906-2.002 2.024v7.105c0 1.118.896 2.024 2.002 2.024h7.028c1.106 0 2.003-.906 2.003-2.024v-7.105c0-1.118-.897-2.024-2.003-2.024z"/><path id="L" d="M187.251 33.903H158.5a.71.71 0 0 1-.707-.715.71.71 0 0 1 .707-.715h28.751a.71.71 0 1 1 0 1.43z"/><path id="M" d="M150.028 50.737c1.001 0 1.815.823 1.815 1.835v7.107c0 1.012-.814 1.835-1.815 1.835h-7.03c-1.001 0-1.815-.823-1.815-1.835v-7.107c0-1.012.814-1.835 1.815-1.835h7.03zm0-.189h-7.03c-1.106 0-2.002.906-2.002 2.024v7.107c0 1.118.896 2.024 2.002 2.024h7.03c1.106 0 2.003-.906 2.003-2.024v-7.107c0-1.118-.897-2.024-2.003-2.024z"/><path id="N" d="M187.251 55.519c.287 0 .52.236.52.526s-.233.526-.52.526H158.5c-.286 0-.52-.236-.52-.526s.234-.526.52-.526h28.751zm0-.189H158.5a.71.71 0 0 0-.707.715.71.71 0 0 0 .707.715h28.751a.71.71 0 1 0 0-1.43z"/><path id="O" d="M177.929 79.616H158.5a.71.71 0 0 1-.707-.715.71.71 0 0 1 .707-.715h19.429a.71.71 0 0 1 .707.715.71.71 0 0 1-.707.715z"/><path id="P" d="M34.5 150.25h54.75v29.5h-66.5V162l.004-.304a11.75 11.75 0 0 1 11.442-11.442l.304-.004z"/><path id="Q" d="M293.5 150.25c6.489 0 11.75 5.261 11.75 11.75v17.75H89.75v-29.5H293.5z"/><linearGradient id="R" gradientUnits="userSpaceOnUse"/></defs></svg>