<svg xmlns="http://www.w3.org/2000/svg" width="328" height="180" fill="none" xmlns:v="https://vecta.io/nano"><style><![CDATA[.B{stroke-miterlimit:10}.C{stroke-linecap:round}.D{fill:#fff}.E{fill:#ffa9a9}.F{stroke-width:.5}.G{stroke:#000}.H{stroke:#0668e1}.I{stroke-width:.931}.J{fill:#0668e1}.K{stroke-width:.663}.L{stroke-linejoin:round}.M{fill:#0745b4}.N{stroke-width:.465}]]></style><rect x=".5" y=".5" width="327" height="179" rx="15.5" fill="#eaf0ff"/><rect x=".5" y=".5" width="327" height="179" rx="15.5" class="H"/><path d="M286.746 156.129h-36.345l11.363-56.103h36.345l-11.363 56.103z" fill="#592c70"/><path d="M288.739 156.129h-26.48c-3.053 0-5.342-2.768-4.742-5.733l9.423-46.522c.453-2.238 2.437-3.848 4.742-3.848h26.48c3.053 0 5.342 2.768 4.742 5.732l-9.423 46.522c-.453 2.239-2.437 3.849-4.742 3.849z" fill="#42195b"/><path d="M284.453 132.602v11.586s-4.491 7.181-14.485 7.928-36.767-1.307-36.767-1.307V108.98l24.271-6.502 8.819.433 13.481 12.417 4.681 17.274z" fill="#5188ff"/><path d="M271.442 131.854l-8.281 13.444-18.367 9.088L260.561 157l15.531-5.726 6.592-10.956s-.244-11.39-11.242-8.464z" class="E"/><path d="M290.922 126.692l-7.035 11.63-1.206 1.996s-2.317-7.963-11.24-8.466l.851-1.499 3.423-6.014-10.575-21.862 17.541 4.416c8.749 2.206 12.88 12.134 8.241 19.799z" fill="#5188ff"/><path d="M283.887 138.322l-1.206 1.995s-2.317-7.963-11.241-8.466l.852-1.498s9.558.566 11.595 7.969z" class="D"/><path d="M271.441 131.373l7.102-12.945m-25.879-14.662c-.503 2.101-.54 6.093 6.162 6.705 3.835.351 6.607-1.33 8.532-3.41a15.5 15.5 0 0 0 1.45-1.829l.958-1.592" stroke="#5a36a8" class="B C K L"/><path d="M273.291 81.558c-1.412 4.699-4.173 15.497-8.511 13.726s-7.31-4.448-7.31-4.448l-7.824-7.764c-3.676-.608-5.766-6.087-5.607-9.011s3.644-.964 3.644-.964-1.132-3.489.471-5.449c1.55-1.896 4.041.928 8.189 1.362.147.016.285.026.422.037 1.762.115 3.682.147 5.496.262 2.719.178 5.216.55 6.618 1.671 2.338 1.865.894 4.977.894 4.977s4.936.901 3.518 5.601z" fill="#211a35"/><path d="M266.758 103.749c-.095.843-4.025 5.134-7.855 4.731-3.835-.404-4.12-3.175-4.12-3.175l-.047-1.745-.106-4.076 7.776-5.019 4.602-2.976c-.625 2.175-.154 11.422-.25 12.26z" class="E"/><path d="M264.781 95.283c-.275 2.755-3.454 7.869-10.045 8.278l-.106-4.076 7.776-5.019c1.481-.115 2.449.084 2.375.817z" fill="#f28181"/><g class="E"><path d="M267.327 92.684c-1.555 3.128-6.528 8.1-11.198 7.822s-6.834-3.62-7.4-6.978c-.567-3.364.259-6.842.095-8.058-.159-1.179-.698-3.578.079-5.512l.064-.157s4.263 2.378 11.759-.655c1.936 3.5 5.374 2.195 5.374 2.195l.693 2.038 1.1 3.238s.989 2.939-.566 6.067z"/><path d="M265.755 86.892c.495-1.083 1.771-1.68 2.698-1.499 1.372.268 2.02 1.567 2.072 2.697.067.989-.258 1.957-.907 2.729-.642.78-1.955 1.6-3.053 1.355-.747-.173-1.147-1.01-1.203-1.633"/></g><path d="M267.398 87.478c.5-.5 1.249-.76 1.502-.001.498 1.501-1 2-1.5 2" stroke="#f28181" class="F"/><path d="M266.789 83.38l-1.021-.854s-4.729.435-5.845-2.179c-1.878 2.373-8.104 3.127-11.024-.388l.064-.157s4.263 2.378 11.759-.655c1.936 3.5 5.374 2.195 5.374 2.195l.693 2.038z" fill="#f28181"/><path d="M255.163 88.282l-1.169 3.039c-.187.487.059 1.033.551 1.219l.838.317" stroke="#f25369" class="B C K L"/><path d="M258.866 94.736c.106.786-.437 1.507-1.211 1.609s-1.489-.452-1.595-1.238l2.806-.371z" class="D"/><path d="M260.562 87.972c0 .348-.284.63-.635.63s-.636-.282-.636-.63.285-.63.636-.63a.63.63 0 0 1 .635.63zm-8.292 0c0 .348-.285.63-.636.63s-.636-.282-.636-.63.285-.63.636-.63.636.282.636.63z" fill="#000"/><path d="M258.347 85.845s1.626-1.025 3.7 0m-12.024 0s1.626-1.025 3.7 0" stroke="#211a35" class="B C K"/><path d="M253.609 148.565h-46.516c-1.077 0-2.112-.865-2.311-1.933l-7.149-38.439c-.199-1.067.514-1.932 1.592-1.932h46.515c1.078 0 2.113.865 2.312 1.932l7.149 38.439c.198 1.068-.514 1.933-1.592 1.933z" fill="#8e9aea"/><path d="M251.011 148.565h-46.515a2.45 2.45 0 0 1-2.311-1.933l-7.15-38.439c-.198-1.067.514-1.932 1.592-1.932h46.516a2.45 2.45 0 0 1 2.31 1.932l7.151 38.439c.198 1.068-.515 1.933-1.593 1.933z" fill="#c4d8ff"/><path d="M244.165 146.531h-9.305a.81.81 0 0 1-.815-.807c0-.446.365-.808.815-.808h9.305c.45 0 .815.362.815.808a.81.81 0 0 1-.815.807z" fill="#211a35"/><g class="B C K L"><use href="#B" stroke="#fff"/><path d="M239.309 145.724c-1.414 2.84-.755 7.702-.755 7.702" stroke="#ff3381"/><use href="#B" x="6.242" stroke="#33b6ff"/></g><path d="M83.589 115.199l-3.105 7.869c-.785 2.268-3.83 26.015-3.83 26.015H37.179s-.509-20.62 1.225-30.644l1.734-10.024 13.44-11.379 14.199 3.796 8.877-.486 6.936 14.853z" class="D"/><path d="M85.211 121.223l14.811 4.742" class="B C G I"/><path d="M89.606 138.222l-8.975-17.85c-2.286-4.552-4.921-14.638-.409-16.948s11.455.311 13.741 4.863l11.981 21.567c2.286 4.552.485 10.116-4.032 12.42-4.499 2.311-10.013.494-12.305-4.052zm-19.209-29.179l1.622-6.862-8.566-3.37 2.907 10.233-1.052 28.551 4.632 5.472 3.709-4.977-3.252-29.046z" class="M"/><path d="M66.356 109.042h4.037" class="B G I"/><path d="M61.074 149.077c-.371-10.015-3.994-41.841-7.505-52.048l-6.271.912-9.618 51.136h23.395z" class="M"/><path d="M53.574 97.029l9.601 10.832 5.15-7.088 4.158 6.628 4.167-7.054" class="B C G I"/><path d="M68.325 100.776l-11.249-7.488-3.502 3.744 9.601 10.831 5.15-7.087zm6.187-3.947l-6.177 3.944 4.158 6.627 4.167-7.053-2.148-3.518z" class="D"/><path d="M76.23 99.622s.692 13.902.295 25.141c-.397 11.232-1.63 24.322-1.63 24.322s4.986.208 5.064 0 3.019-21.638 3.416-24.252 2.847-7.878 2.847-7.878l-1.268-14.39-8.723-2.943z" class="M"/><path d="M79.969 149.077c.078-.217 3.019-21.637 3.416-24.251s2.847-7.879 2.847-7.879m-9.943 17.267s5.849-16.747 5.409-32.356" class="B G N"/><path d="M67.108 135.442c3.934.548 7.928 1.104 11.568 2.78 3.33 1.529 5.064 2.719 7.255 5.768.31.425 1.587 2.015 1.156 2.527-.345.426-1.07.374-1.501.269-.673.652-1.285.565-2.208.105-.25.495-1.466.495-2.622.121-.397.4-1.156.713-2.329.634l-8.066-.755-8.376-.105" class="E"/><path d="M48.666 97.919s-8.549.061-11.499 1.016c-3.709 1.199-5.926 8.096-7.678 17.564-2.45 13.194-2.088 16.877-2.346 19.535-.526 5.342-.078 13.541 9.877 13.541l28.381-.121 3.511-14.341-22.411-2.979 2.113-18.024" class="M"/><g class="B G"><path d="M80.756 147.014s-2.036-1.842-3.977-2.172l-4.494-.616m2.61-2.379s3.942.903 5.452 1.763 3.028 3.283 3.028 3.283m-5.785-7.051s4.201 1.268 5.78 3.031c.992 1.138 1.742 2.476 2.208 3.909m-37.176-48s3.602 21.773 9.173 34.474m11.328 1.866l-22.403-2.97 2.105-18.033m-2.114 18.031s-4.581-.903-9.385 1.364" class="N"/><g class="I"><path d="M66.479 144.341h-5.737m3.87-3.185l-.417 1.261"/><path d="M61.999 141.156l-.417 1.261"/></g></g><path d="M60.079 85.226l-3.985 11.37s8.264 4.83 12.232 4.178 5.159-1.667 5.159-1.667l1.026-9.824-13.431-5.559-1.881-.677.88 2.18z" class="E"/><path d="M73.433 98.999s-10.061-5.759-9.245-6.855c1.36-2.469 9.789 1.647 9.789 1.647l-.544 5.208z" fill="url(#A)"/><path d="M76.083 92.459c2.122-3.275 2.191-8.99 1.872-13.029-.207-2.658-.871-4.925-2.847-6.645-3.218-2.806-9.325-4.612-12.871-1.06-2.967 2.971-3.675 7.314-3.045 11.301.492 3.118 1.311 5.246 3.347 7.6 2.044 2.354 6.366 4.517 9.394 4.178 1.88-.226 3.14-.791 4.149-2.345z" class="E"/><path d="M83.661 75.924l.129-.287c.681-1.668.095-3.831-1.415-4.743-.69-.417-1.51-.582-2.191-.999-1.432-.895-1.984-2.771-3.252-3.9-2.346-2.111-5.573-.226-8.247-.113l-3.865.069c-2.001.104-4.037.547-5.745 1.65-2.898 1.868-4.477 5.42-4.684 8.903s.267 7.644 4.158 13.107c1.268-2.076 1.527-7.244 2.795-9.32.138-.226-.802-.365-.612-.547a3.27 3.27 0 0 1 .828-.547c.863-.443 1.76-.903 2.717-.903.811 0 1.63.33 2.407.087.949-.304 1.484-1.373 1.622-2.38.112-.834.19-1.928.975-2.18 1.07-.347 1.768 1.338 2.881 1.442.371.035.733-.122 1.087-.235.794-.243 1.682-.304 2.467-.035.638.243 1.165.73 1.449 1.364.431.895.966 1.251 1.967 1.581 1.734.547 3.744-.443 4.529-2.015z" fill="#1b140f"/><path d="M62.934 81.298c-.345-1.416-1.63-2.397-2.674-2.363-1.544.052-2.484 1.503-2.743 2.866-.25 1.19-.069 2.432.5 3.501.561 1.077 1.846 2.337 3.088 2.258.845-.061 1.432-.999 1.605-1.746" class="E"/><g class="B"><g class="N"><path d="M60.914 84.489s-.213-.775-.556-1.121-1.112-.561-1.112-.561" stroke="#1b1c17" class="C"/><g class="G"><path d="M62.714 86.146c-.216.382-.863 1.677-2.191 1.399-.604-.122-2.401-1.648-3.359-3.897"/><path d="M74.989 81.048c.164.834.302 3.639.362 4.499.026.33.009.73-.259.921-.181.104-.388.139-.595.104a6.92 6.92 0 0 1-1.915-.452" class="C"/></g></g><path d="M67.977 78.127c1.328-.773 2.812-1.251 4.348-1.372m3.62.645c1.087.365 2.217.764 2.959 1.737" class="I C G"/></g><path d="M72.137 80.908c0 .504-.242.929-.552.938-.311.017-.561-.391-.569-.895s.242-.929.552-.938c.311-.017.561.382.569.895zm5.469 1.139c0 .504-.241.929-.552.938-.311.017-.561-.391-.569-.895s.242-.929.552-.938c.311-.017.561.382.569.895z" fill="#000"/><path d="M74.789 89.438s-1.79-.045-2.72-.274c-1.021-.252-1.903-.823-1.903-.823s-.754 1.914 1.57 2.593 3.053-1.496 3.053-1.496z" class="D"/><g stroke="#f17d52" class="B F"><path d="M77.855 85.73c1.028-.052 1.79-1.508 1.703-3.252s-.99-3.116-2.018-3.064-1.79 1.508-1.703 3.252.991 3.116 2.018 3.064zm-8.988-5.407c-.104 1.728.914 3.405 2.269 3.752s2.536-.773 2.631-2.502-.914-3.405-2.269-3.752c-1.354-.356-2.536.764-2.631 2.502z"/><path d="M76.043 80.935l-2.398-.617m-4.728-.982l-6.573.834"/></g><g class="H F"><path d="M125.694 122.289c.727 0 1.294.863.958 1.689v.001l-10.367 25.771H54.776c-1.018 0-1.894-.852-2.006-2.002h21.921l.063-.156 9.791-24.339.004-.009a1.45 1.45 0 0 1 1.199-.947l.11-.008h39.836z" fill="#c4d8ff"/><path d="M146 79.25h-46A1.75 1.75 0 0 0 98.25 81v15.904l2.297-1.298a2.25 2.25 0 0 1 1.1-.291l44.358-.136a1.75 1.75 0 0 0 1.745-1.75V81a1.75 1.75 0 0 0-1.75-1.75z" class="D"/></g><g class="J"><circle cx="105.668" cy="86.333" r="4"/><rect x="112" y="83" width="30" height="2" rx=".667"/><rect x="112" y="87" width="15" height="2" rx=".667"/></g><g class="H"><g class="D F"><path d="M201.061 52.816l15.755 12.522V52.816h-15.755z"/><path d="M226.634 21.246h-96.93c-1.725 0-3.124 1.398-3.124 3.122v28.679c0 1.724 1.399 3.122 3.124 3.122h96.93c1.725 0 3.124-1.398 3.124-3.122V24.368c0-1.724-1.399-3.122-3.124-3.122z"/></g><path d="M213.824 33.145h-64.552m64.552 9.496h-19.782" stroke-width=".799" class="B"/><path d="M157.339 123.063a.76.76 0 0 1 .218.529c0 .06-.005.117-.014.163l-.8 3.808-.127.603h5.883c.309 0 .606.123.824.342s.342.516.342.825V131c0 .148-.028.284-.081.42l-2.512 5.866-.002.005c-.174.417-.586.709-1.071.709h-7.5c-.309 0-.606-.123-.825-.342s-.342-.516-.342-.825V128.5c0-.321.128-.612.346-.83l5.13-5.132.531.525zM148.665 129v9h-2.333v-9h2.333z" class="D"/></g><path d="M209.585 86.833a1.17 1.17 0 0 1 1.166-1.167h3.687l-.56-2.666a.94.94 0 0 1-.018-.187.88.88 0 0 1 .257-.618l.618-.612 3.839 3.838c.216.216.344.507.344.828v5.833c0 .309-.123.606-.342.825s-.515.342-.825.342h-5.25a1.16 1.16 0 0 1-1.073-.712l-1.762-4.112c-.052-.134-.081-.274-.081-.426v-1.167zm12.833 6.417h-2.333v-7h2.333v7z" class="J"/><use href="#C" fill="#e8f2ff"/><use href="#C" class="F H"/><path d="M36.348 171.192c-.971 0-1.803-.171-2.496-.512-.683-.341-1.264-.773-1.744-1.296l1.6-1.616c.373.427.795.747 1.264.96.48.213.992.32 1.536.32.597 0 1.04-.123 1.328-.368s.432-.571.432-.976a1.27 1.27 0 0 0-.112-.544c-.064-.171-.192-.309-.384-.416-.181-.117-.448-.197-.8-.24l-1.104-.144c-.779-.107-1.424-.299-1.936-.576-.501-.288-.875-.661-1.12-1.12-.245-.469-.368-1.013-.368-1.632 0-.672.165-1.259.496-1.76.341-.512.821-.912 1.44-1.2.629-.288 1.381-.432 2.256-.432.843 0 1.584.139 2.224.416.64.267 1.189.651 1.648 1.152l-1.616 1.632a3.11 3.11 0 0 0-.976-.752c-.373-.203-.848-.304-1.424-.304-.544 0-.949.096-1.216.288a.93.93 0 0 0-.4.8c0 .256.043.464.128.624a.92.92 0 0 0 .432.368c.203.085.459.155.768.208l1.104.176c.768.117 1.403.315 1.904.592s.875.64 1.12 1.088.368.992.368 1.632c0 .715-.171 1.344-.512 1.888-.331.544-.821.971-1.472 1.28s-1.44.464-2.368.464zm9.744 0c-.853 0-1.584-.176-2.192-.528-.597-.363-1.056-.875-1.376-1.536-.309-.661-.464-1.44-.464-2.336 0-.885.149-1.653.448-2.304.309-.661.757-1.173 1.344-1.536s1.301-.544 2.144-.544c.928 0 1.675.203 2.24.608.576.395.997.917 1.264 1.568s.4 1.355.4 2.112v.704h-5.392v.128c0 .555.149.997.448 1.328.309.32.779.48 1.408.48.501 0 .901-.101 1.2-.304.309-.203.597-.437.864-.704l1.184 1.472c-.373.427-.864.768-1.472 1.024-.597.245-1.28.368-2.048.368zm-.048-7.04c-.32 0-.597.075-.832.224a1.43 1.43 0 0 0-.528.592c-.117.256-.176.56-.176.912v.128h2.944v-.144a2.32 2.32 0 0 0-.16-.896c-.096-.256-.251-.453-.464-.592-.203-.149-.464-.224-.784-.224zM59.093 171h-1.312c-.288 0-.56-.069-.816-.208-.245-.149-.443-.363-.592-.64-.149-.288-.224-.629-.224-1.024v-.208l.512.608h-.576c-.128.544-.411.96-.848 1.248-.437.277-.976.416-1.616.416-.843 0-1.488-.224-1.936-.672-.448-.459-.672-1.051-.672-1.776 0-.597.144-1.088.432-1.472.299-.384.715-.672 1.248-.864.544-.192 1.184-.288 1.92-.288h1.328v-.528c0-.405-.107-.725-.32-.96-.213-.245-.571-.368-1.072-.368-.469 0-.843.101-1.12.304a3.01 3.01 0 0 0-.688.688l-1.408-1.248a3.58 3.58 0 0 1 1.296-1.168c.523-.288 1.221-.432 2.096-.432 1.184 0 2.075.267 2.672.8.608.523.912 1.28.912 2.272v3.68h.784V171zm-3.152-3.536h-1.152c-.459 0-.805.08-1.04.24s-.352.395-.352.704v.24c0 .299.096.523.288.672s.464.224.816.224c.267 0 .507-.037.72-.112s.384-.192.512-.352c.139-.16.208-.368.208-.624v-.992zM63.05 171h-2.368v-8.4h2.368v1.424h.096a2.51 2.51 0 0 1 .768-1.136c.373-.32.869-.48 1.488-.48.576 0 1.067.144 1.472.432s.699.709.88 1.264h.048c.149-.469.453-.869.912-1.2s1.008-.496 1.648-.496c.811 0 1.429.293 1.856.88.437.576.656 1.392.656 2.448V171h-2.368v-5.072c0-.544-.096-.944-.288-1.2-.181-.267-.469-.4-.864-.4a1.62 1.62 0 0 0-.672.144c-.213.085-.389.219-.528.4-.128.181-.192.411-.192.688V171h-2.368v-5.072c0-.544-.096-.944-.288-1.2-.192-.267-.48-.4-.864-.4-.224 0-.443.048-.656.144-.213.085-.389.219-.528.4a1.1 1.1 0 0 0-.208.688V171z" class="J"/><use href="#D" fill="#e8f2ff"/><use href="#D" class="F H"/><path d="M101.924 166.696V171h-2.112v-11.168h5.04c.683 0 1.269.144 1.76.432.491.277.869.677 1.136 1.2.267.512.4 1.12.4 1.824 0 .757-.176 1.419-.528 1.984-.341.555-.859.949-1.552 1.184l2.288 4.544h-2.352l-2.08-4.304h-2zm0-1.776h2.72c.277 0 .512-.048.704-.144a1.17 1.17 0 0 0 .448-.432c.107-.192.16-.421.16-.688v-.736c0-.277-.053-.507-.16-.688a1.06 1.06 0 0 0-.448-.416c-.192-.096-.427-.144-.704-.144h-2.72v3.248zm11.527 6.272c-.822 0-1.526-.176-2.112-.528-.587-.363-1.04-.869-1.36-1.52-.31-.661-.464-1.44-.464-2.336 0-.875.154-1.637.464-2.288.309-.661.752-1.168 1.328-1.52.576-.363 1.269-.544 2.08-.544.874 0 1.589.192 2.144.576.565.384.981.896 1.248 1.536.277.629.416 1.328.416 2.096v.672h-5.552v.208c0 .597.17 1.083.512 1.456s.848.56 1.52.56c.501 0 .917-.107 1.248-.32a4 4 0 0 0 .88-.816l1.104 1.232c-.342.459-.811.832-1.408 1.12-.587.277-1.27.416-2.048.416zm-.032-7.2c-.363 0-.678.085-.944.256-.267.16-.475.389-.624.688-.139.288-.208.624-.208 1.008v.128h3.424v-.144c0-.395-.064-.731-.192-1.008-.128-.288-.315-.512-.56-.672-.246-.171-.544-.256-.896-.256zm8.874 7.2c-1.238 0-2.192-.395-2.864-1.184-.662-.789-.992-1.856-.992-3.2 0-1.333.33-2.389.992-3.168.672-.789 1.626-1.184 2.864-1.184.842 0 1.536.187 2.08.56.554.373.954.891 1.2 1.552l-1.68.752c-.096-.352-.278-.64-.544-.864-.267-.235-.619-.352-1.056-.352-.566 0-.992.181-1.28.544-.288.352-.432.827-.432 1.424v1.52c0 .576.144 1.045.432 1.408s.714.544 1.28.544c.48 0 .853-.123 1.12-.368a2.57 2.57 0 0 0 .64-.944l1.568.752c-.267.736-.688 1.291-1.264 1.664-.566.363-1.254.544-2.064.544zm6.955-.192H127.2v-8.352h2.048v1.728h.08a2.62 2.62 0 0 1 .368-.832c.181-.267.421-.48.72-.64.309-.171.682-.256 1.12-.256h.448v1.936h-.64c-.459 0-.848.048-1.168.144-.31.085-.544.224-.704.416-.15.181-.224.427-.224.736V171zm9.225 0v-1.392h-.08a2.53 2.53 0 0 1-.752 1.104c-.363.32-.891.48-1.584.48-.853 0-1.515-.283-1.984-.848-.459-.576-.688-1.381-.688-2.416v-5.28h2.048v5.072c0 .576.112 1.019.336 1.328.224.299.581.448 1.072.448.267 0 .523-.048.768-.144a1.46 1.46 0 0 0 .624-.432c.16-.203.24-.453.24-.752v-5.52h2.048V171h-2.048zm5.438-9.568c-.416 0-.72-.096-.912-.288a1.03 1.03 0 0 1-.288-.736v-.32c0-.299.096-.544.288-.736s.496-.288.912-.288.72.096.912.288.288.437.288.736v.32a1.03 1.03 0 0 1-.288.736c-.192.192-.496.288-.912.288zM142.887 171v-8.352h2.048V171h-2.048zm8.486 0h-1.472c-.704 0-1.242-.181-1.616-.544-.362-.373-.544-.901-.544-1.584v-4.608h-1.232v-1.616h.64c.31 0 .518-.069.624-.208.118-.149.176-.368.176-.656v-1.424h1.84v2.288h1.712v1.616h-1.712v5.104h1.584V171zm5.218.192c-.821 0-1.525-.176-2.112-.528-.586-.363-1.04-.869-1.36-1.52-.309-.661-.464-1.44-.464-2.336 0-.875.155-1.637.464-2.288.31-.661.752-1.168 1.328-1.52.576-.363 1.27-.544 2.08-.544.875 0 1.59.192 2.144.576.566.384.982.896 1.248 1.536.278.629.416 1.328.416 2.096v.672h-5.552v.208c0 .597.171 1.083.512 1.456s.848.56 1.52.56c.502 0 .918-.107 1.248-.32.331-.224.624-.496.88-.816l1.104 1.232c-.341.459-.81.832-1.408 1.12-.586.277-1.269.416-2.048.416zm-.032-7.2c-.362 0-.677.085-.944.256-.266.16-.474.389-.624.688-.138.288-.208.624-.208 1.008v.128h3.424v-.144c0-.395-.064-.731-.192-1.008a1.51 1.51 0 0 0-.56-.672c-.245-.171-.544-.256-.896-.256zm7.626 7.008h-2.048v-8.352h2.048v1.728h.08a2.64 2.64 0 0 1 .368-.832c.181-.267.421-.48.72-.64.309-.171.683-.256 1.12-.256h.448v1.936h-.64c-.459 0-.848.048-1.168.144-.309.085-.544.224-.704.416-.149.181-.224.427-.224.736V171z" class="J"/><path d="M195.501 165h9.722m-3.612-3l3.889 3-3.889 3m-10.112-3h-9.722m3.612-3l-3.889 3 3.889 3" stroke-width="1.25" class="C H L"/><path d="M225.148 171.192c-.981 0-1.835-.213-2.56-.64-.715-.427-1.269-1.061-1.664-1.904-.395-.853-.592-1.904-.592-3.152 0-1.259.197-2.32.592-3.184.395-.875.949-1.536 1.664-1.984.725-.459 1.579-.688 2.56-.688.992 0 1.819.213 2.48.64.672.427 1.205 1.072 1.6 1.936l-1.808.96c-.16-.501-.421-.901-.784-1.2-.363-.309-.859-.464-1.488-.464-.789 0-1.419.267-1.888.8-.459.533-.688 1.28-.688 2.24v1.76c0 .949.229 1.691.688 2.224.469.523 1.099.784 1.888.784.629 0 1.141-.171 1.536-.512s.688-.763.88-1.264l1.712 1.008c-.395.832-.933 1.483-1.616 1.952-.683.459-1.52.688-2.512.688zM238.23 171h-1.136c-.31 0-.587-.069-.832-.208a1.56 1.56 0 0 1-.56-.64c-.128-.277-.192-.603-.192-.976V169l.512.56h-.576c-.139.533-.427.939-.864 1.216-.427.277-.95.416-1.568.416-.854 0-1.51-.224-1.968-.672-.459-.459-.688-1.056-.688-1.792 0-.576.138-1.051.416-1.424.288-.373.698-.656 1.232-.848s1.173-.288 1.92-.288h1.424v-.608c0-.459-.123-.816-.368-1.072-.246-.267-.64-.4-1.184-.4-.48 0-.87.107-1.168.32a3.01 3.01 0 0 0-.736.736l-1.216-1.088c.309-.48.72-.864 1.232-1.152.512-.299 1.189-.448 2.032-.448 1.12 0 1.973.261 2.56.784.597.512.896 1.243.896 2.192v3.936h.832V171zm-2.88-3.6h-1.312c-.534 0-.934.091-1.2.272-.267.171-.4.421-.4.752v.272c0 .331.112.581.336.752s.533.256.928.256c.309 0 .586-.043.832-.128.245-.096.442-.235.592-.416a1 1 0 0 0 .224-.656V167.4zm6.585 3.6h-2.048v-8.352h2.048v1.392h.08c.171-.448.437-.821.8-1.12.373-.309.885-.464 1.536-.464.853 0 1.509.288 1.968.864.469.565.704 1.365.704 2.4V171h-2.048v-5.072c0-.587-.107-1.029-.32-1.328-.213-.309-.565-.464-1.056-.464-.277 0-.544.053-.8.16-.256.096-.464.245-.624.448-.16.192-.24.437-.24.736V171zm12.542 0v-1.392h-.08c-.149.48-.432.864-.848 1.152s-.901.432-1.456.432c-.693 0-1.285-.171-1.776-.512-.48-.341-.848-.837-1.104-1.488-.256-.661-.384-1.456-.384-2.384s.128-1.712.384-2.352c.256-.651.624-1.147 1.104-1.488.491-.341 1.083-.512 1.776-.512.555 0 1.04.144 1.456.432.427.277.71.656.848 1.136h.08v-4.864h2.048V171h-2.048zm-1.728-1.504c.331 0 .624-.053.88-.16.267-.107.475-.261.624-.464s.224-.448.224-.736v-2.656a1.15 1.15 0 0 0-.224-.704c-.149-.203-.357-.357-.624-.464-.256-.117-.549-.176-.88-.176-.522 0-.949.181-1.28.544-.33.352-.496.827-.496 1.424v1.44c0 .587.166 1.061.496 1.424.331.352.758.528 1.28.528zm7.162-8.064c-.416 0-.72-.096-.912-.288a1.03 1.03 0 0 1-.288-.736v-.32c0-.299.096-.544.288-.736s.496-.288.912-.288.72.096.912.288.288.437.288.736v.32a1.03 1.03 0 0 1-.288.736c-.192.192-.496.288-.912.288zM258.887 171v-8.352h2.048V171h-2.048zm9.59 0v-1.392h-.08c-.149.48-.432.864-.848 1.152s-.901.432-1.456.432c-.693 0-1.285-.171-1.776-.512-.48-.341-.848-.837-1.104-1.488-.256-.661-.384-1.456-.384-2.384s.128-1.712.384-2.352c.256-.651.624-1.147 1.104-1.488.491-.341 1.083-.512 1.776-.512.555 0 1.04.144 1.456.432.427.277.71.656.848 1.136h.08v-4.864h2.048V171h-2.048zm-1.728-1.504c.331 0 .624-.053.88-.16.267-.107.475-.261.624-.464s.224-.448.224-.736v-2.656a1.15 1.15 0 0 0-.224-.704c-.149-.203-.357-.357-.624-.464-.256-.117-.549-.176-.88-.176-.522 0-.949.181-1.28.544-.33.352-.496.827-.496 1.424v1.44c0 .587.166 1.061.496 1.424.331.352.758.528 1.28.528zM280.167 171h-1.136c-.309 0-.587-.069-.832-.208-.235-.149-.421-.363-.56-.64-.128-.277-.192-.603-.192-.976V169l.512.56h-.576c-.139.533-.427.939-.864 1.216-.427.277-.949.416-1.568.416-.853 0-1.509-.224-1.968-.672-.459-.459-.688-1.056-.688-1.792 0-.576.139-1.051.416-1.424.288-.373.699-.656 1.232-.848s1.173-.288 1.92-.288h1.424v-.608c0-.459-.123-.816-.368-1.072-.245-.267-.64-.4-1.184-.4-.48 0-.869.107-1.168.32-.288.203-.533.448-.736.736l-1.216-1.088c.309-.48.72-.864 1.232-1.152.512-.299 1.189-.448 2.032-.448 1.12 0 1.973.261 2.56.784.597.512.896 1.243.896 2.192v3.936h.832V171zm-2.88-3.6h-1.312c-.533 0-.933.091-1.2.272-.267.171-.4.421-.4.752v.272c0 .331.112.581.336.752s.533.256.928.256c.309 0 .587-.043.832-.128a1.42 1.42 0 0 0 .592-.416 1 1 0 0 0 .224-.656V167.4zm8.555 3.6h-1.472c-.704 0-1.243-.181-1.616-.544-.363-.373-.544-.901-.544-1.584v-4.608h-1.232v-1.616h.64c.309 0 .517-.069.624-.208.117-.149.176-.368.176-.656v-1.424h1.84v2.288h1.712v1.616h-1.712v5.104h1.584V171zm5.218.192c-.821 0-1.525-.176-2.112-.528-.587-.363-1.04-.869-1.36-1.52-.309-.661-.464-1.44-.464-2.336 0-.875.155-1.637.464-2.288.309-.661.752-1.168 1.328-1.52.576-.363 1.269-.544 2.08-.544.875 0 1.589.192 2.144.576.565.384.981.896 1.248 1.536.277.629.416 1.328.416 2.096v.672h-5.552v.208c0 .597.171 1.083.512 1.456s.848.56 1.52.56c.501 0 .917-.107 1.248-.32.331-.224.624-.496.88-.816l1.104 1.232c-.341.459-.811.832-1.408 1.12-.587.277-1.269.416-2.048.416zm-.032-7.2a1.71 1.71 0 0 0-.944.256c-.267.16-.475.389-.624.688-.139.288-.208.624-.208 1.008v.128h3.424v-.144c0-.395-.064-.731-.192-1.008-.128-.288-.315-.512-.56-.672-.245-.171-.544-.256-.896-.256z" class="J"/><defs><linearGradient id="A" x1="72.834" y1="99.166" x2="66.167" y2="91.666" gradientUnits="userSpaceOnUse"><stop stop-color="#ffa9a9"/><stop offset="1" stop-color="#ff9494"/></linearGradient><path id="B" d="M236.262 145.724c-1.414 2.84-.754 7.702-.754 7.702"/><path id="C" d="M31.5 150.25h54.75v29.5h-66.5V162l.004-.304a11.75 11.75 0 0 1 11.442-11.442l.304-.004z"/><path id="D" d="M295.5 150.25c6.489 0 11.75 5.261 11.75 11.75v17.75H86.75v-29.5H295.5z"/></defs></svg>